<svg width="464" height="216" viewBox="0 0 464 216" fill="none" xmlns="http://www.w3.org/2000/svg">
<rect y="48" width="433" height="154" rx="50" fill="#FDD835" fill-opacity="0.5"/>
<rect x="16" y="27" width="433" height="153" rx="50" fill="url(#paint0_linear)"/>
<path d="M84.2534 100.48C86.9734 100.48 89.1334 101.184 90.7334 102.592C92.3334 103.968 93.3734 105.696 93.8534 107.776L90.0134 108.112C89.5974 106.768 88.9254 105.728 87.9974 104.992C87.0694 104.224 86.0454 103.84 84.9254 103.84C82.8774 103.84 81.2134 104.608 79.9334 106.144C78.6854 107.68 78.0614 109.776 78.0614 112.432C78.0614 115.056 78.6694 117.168 79.8854 118.768C81.1334 120.368 82.6694 121.168 84.4934 121.168C86.3494 121.168 87.7254 120.752 88.6214 119.92C89.5494 119.056 90.0134 117.84 90.0134 116.272H93.9014C93.9014 118.736 93.0374 120.736 91.3094 122.272C89.6134 123.776 87.3894 124.528 84.6374 124.528C81.7254 124.528 79.2454 123.424 77.1974 121.216C75.1814 119.008 74.1734 116.08 74.1734 112.432C74.1734 108.752 75.1814 105.84 77.1974 103.696C79.2134 101.552 81.5654 100.48 84.2534 100.48ZM109.581 100.48C112.781 100.48 115.357 101.52 117.309 103.6C119.293 105.68 120.285 108.656 120.285 112.528C120.285 116.368 119.293 119.328 117.309 121.408C115.357 123.488 112.781 124.528 109.581 124.528C106.381 124.528 103.789 123.488 101.805 121.408C99.8526 119.328 98.8766 116.368 98.8766 112.528C98.8766 108.656 99.8526 105.68 101.805 103.6C103.789 101.52 106.381 100.48 109.581 100.48ZM116.445 112.528C116.445 109.776 115.869 107.632 114.717 106.096C113.565 104.528 111.869 103.744 109.629 103.744C107.421 103.744 105.725 104.528 104.541 106.096C103.357 107.632 102.765 109.776 102.765 112.528C102.765 115.248 103.325 117.392 104.445 118.96C105.565 120.496 107.229 121.264 109.437 121.264C111.677 121.264 113.405 120.496 114.621 118.96C115.837 117.392 116.445 115.248 116.445 112.528ZM131.176 105.472C132.68 102.144 135.256 100.48 138.904 100.48C140.888 100.48 142.552 100.976 143.896 101.968C145.24 102.928 146.216 104.272 146.824 106C148.264 102.32 150.936 100.48 154.84 100.48C157.592 100.48 159.72 101.376 161.224 103.168C162.728 104.96 163.48 107.408 163.48 110.512V124H159.736V110.512C159.736 108.304 159.208 106.64 158.152 105.52C157.128 104.4 155.64 103.84 153.688 103.84C151.736 103.84 150.216 104.64 149.128 106.24C148.072 107.84 147.544 110.048 147.544 112.864V124H143.8V110.512C143.8 108.304 143.272 106.64 142.216 105.52C141.192 104.4 139.72 103.84 137.8 103.84C135.88 103.84 134.328 104.624 133.144 106.192C131.96 107.76 131.336 109.936 131.272 112.72V124H127.48V101.056H130.744L131.176 105.472ZM180.307 121.456C183.475 121.456 185.283 120.064 185.731 117.28H189.619C189.267 119.584 188.243 121.376 186.547 122.656C184.883 123.904 182.803 124.528 180.307 124.528C177.235 124.528 174.739 123.44 172.819 121.264C170.899 119.056 169.939 116.128 169.939 112.48C169.939 108.832 170.899 105.92 172.819 103.744C174.771 101.568 177.347 100.48 180.547 100.48C183.779 100.48 186.179 101.728 187.747 104.224C189.347 106.72 189.907 109.76 189.427 113.344H173.731C173.731 115.712 174.307 117.664 175.459 119.2C176.611 120.704 178.227 121.456 180.307 121.456ZM183.091 104.08C182.355 103.696 181.459 103.504 180.403 103.504C178.451 103.504 176.899 104.176 175.747 105.52C174.627 106.832 173.971 108.48 173.779 110.464H186.019C186.019 107.264 185.043 105.136 183.091 104.08ZM206.642 124.48C204.37 124.48 202.338 124.016 200.546 123.088C198.786 122.16 197.394 120.72 196.37 118.768C195.378 116.816 194.882 114.32 194.882 111.28C194.882 108.112 195.41 105.536 196.466 103.552C197.522 101.568 198.946 100.112 200.738 99.184C202.562 98.256 204.626 97.792 206.93 97.792C208.242 97.792 209.506 97.936 210.722 98.224C211.938 98.48 212.93 98.8 213.698 99.184L212.402 102.688C211.634 102.4 210.738 102.128 209.714 101.872C208.69 101.616 207.73 101.488 206.834 101.488C201.778 101.488 199.25 104.736 199.25 111.232C199.25 114.336 199.858 116.72 201.074 118.384C202.322 120.016 204.162 120.832 206.594 120.832C208.002 120.832 209.234 120.688 210.29 120.4C211.378 120.112 212.37 119.76 213.266 119.344V123.088C212.402 123.536 211.442 123.872 210.386 124.096C209.362 124.352 208.114 124.48 206.642 124.48ZM210.578 130.672C210.578 132.208 209.986 133.392 208.802 134.224C207.618 135.088 205.842 135.52 203.474 135.52C202.45 135.52 201.65 135.44 201.074 135.28V132.64C201.362 132.704 201.746 132.752 202.226 132.784C202.706 132.848 203.17 132.88 203.618 132.88C204.77 132.88 205.65 132.72 206.258 132.4C206.866 132.112 207.17 131.568 207.17 130.768C207.17 129.936 206.738 129.328 205.874 128.944C205.042 128.56 204.018 128.288 202.802 128.128L204.866 124H207.65L206.402 126.544C207.554 126.8 208.53 127.248 209.33 127.888C210.162 128.528 210.578 129.456 210.578 130.672ZM234.361 109.12C234.361 107.04 233.929 105.552 233.065 104.656C232.201 103.76 230.937 103.312 229.273 103.312C227.641 103.312 226.313 103.648 225.289 104.32C224.297 104.96 223.801 105.984 223.801 107.392H219.625C219.625 103.872 221.513 101.696 225.289 100.864C226.441 100.608 227.689 100.48 229.033 100.48C231.881 100.48 234.105 101.2 235.705 102.64C237.305 104.08 238.105 106.272 238.105 109.216V124H234.841L234.457 120.16C233.049 123.072 230.505 124.528 226.825 124.528C224.361 124.528 222.377 123.84 220.873 122.464C219.401 121.088 218.665 119.376 218.665 117.328C218.665 115.28 219.481 113.68 221.113 112.528C222.777 111.376 224.841 110.8 227.305 110.8C229.769 110.8 232.121 111.216 234.361 112.048V109.12ZM234.361 114.448C232.089 113.808 230.105 113.488 228.409 113.488C226.713 113.488 225.337 113.792 224.281 114.4C223.225 115.008 222.697 115.968 222.697 117.28C222.697 120.16 224.329 121.6 227.593 121.6C229.449 121.6 231.033 120.944 232.345 119.632C233.689 118.288 234.361 116.56 234.361 114.448ZM256.372 104.272C252.756 104.272 250.884 107.12 250.756 112.816V124H246.964V101.008H250.756V105.424C251.908 102.224 253.94 100.624 256.852 100.624C257.78 100.624 258.66 100.768 259.492 101.056L259.3 104.752C258.34 104.432 257.364 104.272 256.372 104.272ZM290.939 109.12C290.939 107.04 290.507 105.552 289.643 104.656C288.779 103.76 287.515 103.312 285.851 103.312C284.219 103.312 282.891 103.648 281.867 104.32C280.875 104.96 280.379 105.984 280.379 107.392H276.203C276.203 103.872 278.091 101.696 281.867 100.864C283.019 100.608 284.267 100.48 285.611 100.48C288.459 100.48 290.683 101.2 292.283 102.64C293.883 104.08 294.683 106.272 294.683 109.216V124H291.419L291.035 120.16C289.627 123.072 287.083 124.528 283.403 124.528C280.939 124.528 278.955 123.84 277.451 122.464C275.979 121.088 275.243 119.376 275.243 117.328C275.243 115.28 276.059 113.68 277.691 112.528C279.355 111.376 281.419 110.8 283.883 110.8C286.347 110.8 288.699 111.216 290.939 112.048V109.12ZM290.939 114.448C288.667 113.808 286.683 113.488 284.987 113.488C283.291 113.488 281.915 113.792 280.859 114.4C279.803 115.008 279.275 115.968 279.275 117.28C279.275 120.16 280.907 121.6 284.171 121.6C286.027 121.6 287.611 120.944 288.923 119.632C290.267 118.288 290.939 116.56 290.939 114.448ZM304.55 123.28C302.63 122.352 301.67 120.928 301.67 119.008C301.67 118.016 302.038 117.152 302.774 116.416C303.542 115.648 304.486 115.136 305.606 114.88C303.878 113.344 303.014 111.328 303.014 108.832C303.014 106.336 303.894 104.32 305.654 102.784C307.446 101.248 309.558 100.48 311.99 100.48C314.422 100.48 316.486 101.056 318.182 102.208C318.406 100.512 319.078 99.152 320.198 98.128C321.35 97.104 322.854 96.592 324.71 96.592L324.374 100.336C321.558 100.336 320.086 101.52 319.958 103.888C321.078 105.264 321.638 106.912 321.638 108.832C321.638 111.296 320.742 113.328 318.95 114.928C317.19 116.496 314.982 117.28 312.326 117.28C310.502 117.28 308.886 116.912 307.478 116.176C306.838 116.304 306.262 116.608 305.75 117.088C305.238 117.536 304.982 118.16 304.982 118.96C304.982 120.656 306.39 121.504 309.206 121.504H318.134C320.278 121.504 321.974 121.968 323.222 122.896C324.47 123.792 325.094 125.056 325.094 126.688C325.094 129.12 323.862 131.248 321.398 133.072C318.966 134.896 315.878 135.808 312.134 135.808C308.39 135.808 305.446 135.104 303.302 133.696C301.158 132.32 300.086 130.576 300.086 128.464C300.086 127.088 300.486 125.968 301.286 125.104C302.118 124.24 303.206 123.632 304.55 123.28ZM303.83 128.32C303.83 129.536 304.486 130.576 305.798 131.44C307.142 132.336 309.158 132.784 311.846 132.784C314.566 132.784 316.822 132.192 318.614 131.008C320.438 129.856 321.35 128.496 321.35 126.928C321.35 126.192 321.078 125.552 320.534 125.008C320.022 124.496 319.222 124.24 318.134 124.24H308.87C307.238 124.304 305.99 124.688 305.126 125.392C304.262 126.128 303.83 127.104 303.83 128.32ZM317.942 108.832C317.942 107.168 317.446 105.824 316.454 104.8C315.462 103.744 314.086 103.216 312.326 103.216C310.598 103.216 309.238 103.744 308.246 104.8C307.254 105.824 306.758 107.168 306.758 108.832C306.758 110.496 307.254 111.872 308.246 112.96C309.27 114.016 310.646 114.544 312.374 114.544C314.102 114.544 315.462 114 316.454 112.912C317.446 111.824 317.942 110.464 317.942 108.832ZM338.987 100.48C342.187 100.48 344.763 101.52 346.715 103.6C348.699 105.68 349.691 108.656 349.691 112.528C349.691 116.368 348.699 119.328 346.715 121.408C344.763 123.488 342.187 124.528 338.987 124.528C335.787 124.528 333.195 123.488 331.211 121.408C329.259 119.328 328.283 116.368 328.283 112.528C328.283 108.656 329.259 105.68 331.211 103.6C333.195 101.52 335.787 100.48 338.987 100.48ZM345.851 112.528C345.851 109.776 345.275 107.632 344.123 106.096C342.971 104.528 341.275 103.744 339.035 103.744C336.827 103.744 335.131 104.528 333.947 106.096C332.763 107.632 332.171 109.776 332.171 112.528C332.171 115.248 332.731 117.392 333.851 118.96C334.971 120.496 336.635 121.264 338.843 121.264C341.083 121.264 342.811 120.496 344.027 118.96C345.243 117.392 345.851 115.248 345.851 112.528ZM366.294 104.272C362.678 104.272 360.806 107.12 360.678 112.816V124H356.886V101.008H360.678V105.424C361.83 102.224 363.862 100.624 366.774 100.624C367.702 100.624 368.582 100.768 369.414 101.056L369.222 104.752C368.262 104.432 367.286 104.272 366.294 104.272ZM389.423 109.12C389.423 107.04 388.991 105.552 388.127 104.656C387.263 103.76 385.999 103.312 384.335 103.312C382.703 103.312 381.375 103.648 380.351 104.32C379.359 104.96 378.863 105.984 378.863 107.392H374.687C374.687 103.872 376.575 101.696 380.351 100.864C381.503 100.608 382.751 100.48 384.095 100.48C386.943 100.48 389.167 101.2 390.767 102.64C392.367 104.08 393.167 106.272 393.167 109.216V124H389.903L389.519 120.16C388.111 123.072 385.567 124.528 381.887 124.528C379.423 124.528 377.439 123.84 375.935 122.464C374.463 121.088 373.727 119.376 373.727 117.328C373.727 115.28 374.543 113.68 376.175 112.528C377.839 111.376 379.903 110.8 382.367 110.8C384.831 110.8 387.183 111.216 389.423 112.048V109.12ZM389.423 114.448C387.151 113.808 385.167 113.488 383.471 113.488C381.775 113.488 380.399 113.792 379.343 114.4C378.287 115.008 377.759 115.968 377.759 117.28C377.759 120.16 379.391 121.6 382.655 121.6C384.511 121.6 386.095 120.944 387.407 119.632C388.751 118.288 389.423 116.56 389.423 114.448Z" fill="white"/>
<defs>
<linearGradient id="paint0_linear" x1="266.053" y1="-38.3049" x2="497.187" y2="250.635" gradientUnits="userSpaceOnUse">
<stop stop-color="#71A5BB"/>
<stop offset="1" stop-color="#37B853" stop-opacity="0"/>
</linearGradient>
</defs>
</svg>
