<svg width="954" height="683" viewBox="0 0 954 683" fill="none" xmlns="http://www.w3.org/2000/svg">
<path opacity="0.1" d="M477 683C740.44 683 954 669.561 954 652.983C954 636.405 740.44 622.966 477 622.966C213.56 622.966 0 636.405 0 652.983C0 669.561 213.56 683 477 683Z" fill="#FDD835"/>
<path d="M879.179 630.752C879.186 633.124 878.942 635.49 878.452 637.811C878.361 638.247 878.261 638.72 878.161 639.093C875.581 649.454 868.303 657.031 859.617 657.513C859.327 657.513 859.036 657.513 858.709 657.513C849.523 657.513 841.755 649.581 839.193 638.657C839.12 638.366 839.056 638.074 838.993 637.747C838.503 635.426 838.259 633.06 838.266 630.688C838.266 615.889 847.415 603.9 858.709 603.9C870.002 603.9 879.179 615.971 879.179 630.752Z" fill="#3F3D56"/>
<path opacity="0.1" d="M879.179 630.752C879.186 633.124 878.942 635.49 878.452 637.811C878.361 638.247 878.262 638.72 878.162 639.093C877.853 639.093 877.553 639.093 877.253 639.093C875.003 638.972 872.767 638.668 870.566 638.184C868.616 638.787 866.624 639.243 864.606 639.548C863.058 639.781 861.499 639.927 859.936 639.985H858.355C856.483 639.985 854.613 639.86 852.758 639.612C849.758 639.211 846.811 638.478 843.972 637.429C842.418 637.947 840.834 638.372 839.229 638.702C839.157 638.411 839.093 638.12 839.029 637.792C838.539 635.472 838.296 633.106 838.303 630.734C838.303 615.935 847.452 603.946 858.745 603.946C870.039 603.946 879.179 615.971 879.179 630.752Z" fill="black"/>
<path d="M922.791 580.859C922.798 574.35 921.273 567.93 918.339 562.121L894.298 569.607L915.404 557.182C911.865 552.061 907.223 547.801 901.82 544.717C896.416 541.633 890.39 539.803 884.186 539.363C883.196 537.865 882.113 536.431 880.942 535.069L846.416 545.83L874.736 529.166C869.319 525.006 862.961 522.246 856.225 521.13C849.488 520.015 842.581 520.578 836.114 522.771C829.647 524.963 823.819 528.717 819.146 533.7C814.472 538.683 811.097 544.743 809.319 551.342L838.893 585.435L806.811 562.194C798.677 567.962 792.884 576.464 790.489 586.151C788.094 595.839 789.256 606.065 793.765 614.965C798.273 623.866 805.827 630.847 815.049 634.637C824.27 638.426 834.545 638.771 843.999 635.609C852.551 638.747 861.892 639.002 870.602 636.336C876.675 637.681 882.971 637.645 889.027 636.229C895.083 634.814 900.745 632.055 905.595 628.158C910.445 624.26 914.359 619.322 917.049 613.709C919.739 608.095 921.136 601.949 921.137 595.722C921.137 594.813 921.137 593.903 921.046 592.993C922.224 589.057 922.812 584.968 922.791 580.859Z" fill="#FDD835"/>
<path opacity="0.1" d="M922.073 588.582C909.377 586.169 896.357 586.002 883.604 588.091C869.167 590.483 854.412 595.741 840.292 591.893C832.006 589.637 824.847 584.416 816.751 581.524C808.942 578.788 800.527 578.281 792.447 580.059C789.366 587.434 788.471 595.541 789.869 603.411C791.267 611.281 794.899 618.582 800.331 624.441C805.764 630.299 812.766 634.468 820.502 636.449C828.238 638.429 836.379 638.138 843.954 635.609C852.506 638.747 861.847 639.003 870.557 636.337C876.629 637.682 882.926 637.645 888.982 636.229C895.038 634.814 900.7 632.056 905.549 628.158C910.399 624.26 914.313 619.323 917.003 613.709C919.693 608.095 921.09 601.949 921.092 595.723C921.092 594.813 921.092 593.903 921.001 592.994C921.439 591.544 921.797 590.071 922.073 588.582Z" fill="black"/>
<path d="M634.728 156.426H629.522C628.373 156.426 627.441 157.358 627.441 158.509V231.678C627.441 232.828 628.373 233.761 629.522 233.761H634.728C635.877 233.761 636.808 232.828 636.808 231.678V158.509C636.808 157.358 635.877 156.426 634.728 156.426Z" fill="#3F3D56"/>
<path d="M319.862 95.8367H317.328C316.575 95.8367 315.965 96.4475 315.965 97.2011V119.932C315.965 120.686 316.575 121.297 317.328 121.297H319.862C320.615 121.297 321.225 120.686 321.225 119.932V97.2011C321.225 96.4475 320.615 95.8367 319.862 95.8367Z" fill="#3F3D56"/>
<path d="M320.162 142.454H317.309C316.461 142.454 315.774 143.143 315.774 143.992V185.233C315.774 186.082 316.461 186.771 317.309 186.771H320.162C321.01 186.771 321.698 186.082 321.698 185.233V143.992C321.698 143.143 321.01 142.454 320.162 142.454Z" fill="#3F3D56"/>
<path d="M320.044 202.27H317.328C316.52 202.27 315.865 202.926 315.865 203.735V245.504C315.865 246.313 316.52 246.969 317.328 246.969H320.044C320.852 246.969 321.507 246.313 321.507 245.504V203.735C321.507 202.926 320.852 202.27 320.044 202.27Z" fill="#3F3D56"/>
<path d="M600.066 11.7068H351.372C333.463 11.7068 318.945 26.2414 318.945 44.1708V617.217C318.945 635.146 333.463 649.681 351.372 649.681H600.066C617.975 649.681 632.493 635.146 632.493 617.217V44.1708C632.493 26.2414 617.975 11.7068 600.066 11.7068Z" fill="#3F3D56"/>
<path d="M486.949 30.7539H447.78C446.506 30.7539 445.473 31.7883 445.473 33.0643V37.3486C445.473 38.6246 446.506 39.659 447.78 39.659H486.949C488.223 39.659 489.257 38.6246 489.257 37.3486V33.0643C489.257 31.7883 488.223 30.7539 486.949 30.7539Z" fill="#E6E8EC"/>
<path d="M500.923 40.2503C503.708 40.2503 505.965 37.99 505.965 35.2019C505.965 32.4138 503.708 30.1536 500.923 30.1536C498.138 30.1536 495.88 32.4138 495.88 35.2019C495.88 37.99 498.138 40.2503 500.923 40.2503Z" fill="#E6E8EC"/>
<path d="M613.131 53.2486V608.112C613.129 614.723 610.504 621.062 605.834 625.736C601.163 630.409 594.83 633.035 588.227 633.035H363.21C356.607 633.035 350.274 630.409 345.604 625.736C340.934 621.062 338.309 614.723 338.306 608.112V53.2486C338.306 49.9744 338.951 46.7323 340.202 43.7074C341.454 40.6824 343.288 37.9339 345.601 35.6187C347.913 33.3035 350.659 31.467 353.68 30.214C356.702 28.9611 359.94 28.3162 363.21 28.3162H396.882V32.6459C396.892 38.0853 399.056 43.2988 402.9 47.1425C406.745 50.9862 411.955 53.1462 417.388 53.1486H531.868C534.561 53.1486 537.228 52.6175 539.716 51.5858C542.204 50.5541 544.464 49.0419 546.369 47.1355C548.273 45.2291 549.783 42.9659 550.814 40.4751C551.844 37.9843 552.375 35.3147 552.375 32.6186V28.3162H588.272C594.87 28.3282 601.192 30.9603 605.853 35.6348C610.513 40.3092 613.131 46.644 613.131 53.2486Z" fill="white"/>
<path opacity="0.2" d="M615.103 282.371V471.051H613.131V471.242H338.306V240.729C340.069 238.715 341.856 236.626 343.667 234.461C382.263 188.317 434.724 176.173 475.328 174.9C503.149 173.99 530.842 179.748 557.281 191.182C571.246 197.222 591.289 203.844 613.131 204.499V275.83C614.467 279.642 615.103 282.371 615.103 282.371Z" fill="#FDD835"/>
<path opacity="0.2" d="M615.103 282.371V471.052H338.306V347.454C348.164 344.97 361.929 335.419 379.592 309.032C400.716 277.459 429.418 269.154 451.633 268.281C466.851 267.681 482.006 271.592 496.471 279.424C512.743 288.22 544.107 298.826 567.939 268.035C594.287 233.989 608.298 262.068 613.131 275.831C614.467 279.642 615.103 282.371 615.103 282.371Z" fill="#FDD835"/>
<path d="M575.771 231.689H377.702C371.681 231.689 366.799 236.576 366.799 242.604V289.904C366.799 295.933 371.681 300.819 377.702 300.819H575.771C581.792 300.819 586.674 295.933 586.674 289.904V242.604C586.674 236.576 581.792 231.689 575.771 231.689Z" fill="#006064"/>
<path d="M575.771 353.165H377.702C371.681 353.165 366.799 358.052 366.799 364.08V411.38C366.799 417.408 371.681 422.295 377.702 422.295H575.771C581.792 422.295 586.674 417.408 586.674 411.38V364.08C586.674 358.052 581.792 353.165 575.771 353.165Z" fill="#006064"/>
<path d="M121.803 621.919L139.193 611.65C136.841 607.628 133.835 604.028 130.298 600.998L97.4899 611.25L123.202 596.114C116.837 592.623 109.674 590.852 102.418 590.974C95.1615 591.097 88.0621 593.109 81.8184 596.813C75.5747 600.517 70.4019 605.784 66.8092 612.097C63.2165 618.41 61.3277 625.551 61.3287 632.817C61.3287 655.93 80.0362 656.73 103.123 656.73C126.21 656.73 144.917 655.93 144.917 632.817C144.925 626.969 143.703 621.186 141.328 615.843L121.803 621.919Z" fill="#FDD835"/>
<path opacity="0.1" d="M126.228 644.396C124.377 642.538 122.309 640.91 120.068 639.548C116.906 637.447 113.644 635.309 109.919 634.59C106.648 633.963 103.277 634.49 99.9247 634.309C94.1401 633.952 88.6954 631.452 84.6516 627.295C82.2802 624.839 80.4086 621.838 77.5556 619.937C74.4756 617.917 70.5687 617.481 66.9163 617.981C65.8578 618.141 64.8085 618.357 63.7726 618.627C62.1329 623.181 61.2967 627.985 61.3013 632.826C61.3013 655.939 80.0088 656.74 103.096 656.74C114.298 656.74 124.465 656.549 131.97 653.711L130.716 651.364C129.52 648.861 128.012 646.519 126.228 644.396Z" fill="black"/>
<path d="M207.372 529.667C206.044 530.833 205.021 532.307 204.392 533.96C202.838 538.817 207.181 543.584 207.599 548.668C207.926 552.707 205.782 556.473 204.565 560.348C203.191 565.161 203.279 570.275 204.82 575.038C206.36 579.801 209.283 583.997 213.214 587.09C214.051 587.801 215.039 588.312 216.103 588.582C216.981 588.688 217.872 588.613 218.72 588.363C219.568 588.113 220.357 587.692 221.037 587.127C223.147 585.59 224.756 583.464 225.662 581.014C226.415 578.607 226.822 576.105 226.87 573.583L227.515 563.85C228.187 553.689 228.796 543.211 226.325 533.232C225.516 529.958 224.017 522.435 220.237 521.98C216.458 521.526 209.88 527.211 207.372 529.667Z" fill="#3F3D56"/>
<path d="M270.754 487.861C266.216 503.817 262.926 520.103 260.914 536.571C260.624 538.89 260.324 541.328 258.925 543.202C256.135 546.958 250.548 546.722 245.914 546.113C244.802 546.054 243.717 545.743 242.743 545.203C240.998 544.02 240.617 541.655 240.408 539.554C237.234 508.579 235.114 477.522 234.048 446.383C234.002 445.191 272.835 445.082 276.16 448.202C279.486 451.322 276.905 462.992 276.16 466.967C274.943 474.044 272.744 480.939 270.754 487.861Z" fill="#FBBEBE"/>
<path opacity="0.05" d="M270.754 487.861C266.216 503.817 262.926 520.103 260.914 536.571C260.624 538.89 260.324 541.328 258.925 543.202C256.135 546.958 250.548 546.722 245.914 546.113C244.802 546.054 243.717 545.743 242.743 545.203C240.998 544.02 240.617 541.655 240.408 539.554C237.234 508.579 235.114 477.522 234.048 446.383C234.002 445.191 272.835 445.082 276.16 448.202C279.486 451.322 276.905 462.992 276.16 466.967C274.943 474.044 272.744 480.939 270.754 487.861Z" fill="black"/>
<path d="M189.891 441.953L205.619 476.582C210.852 488.098 216.122 499.741 218.62 512.139C219.623 517.318 220.263 522.561 220.537 527.829C220.917 532.345 220.777 536.89 220.119 541.374C219.547 544.703 218.493 547.941 218.03 551.288C216.213 564.632 223.763 577.185 228.933 589.601C233.399 600.265 236.242 611.539 237.364 623.048C237.837 627.95 238.1 633.153 240.899 637.201C246.014 635.664 251.011 634.336 256.344 634.936C257.298 627.104 252.356 619.891 250.538 612.196C247.204 598.097 254.572 583.279 252.065 569.008C250.702 561.276 246.477 553.999 246.822 546.158C247.467 531.859 250.148 517.414 247.422 503.406C244.351 487.57 235.52 473.171 233.566 457.162C232.067 444.864 234.475 431.265 227.633 420.932C212.687 420.05 197.233 428.882 189.891 441.953Z" fill="#FBBEBE"/>
<path d="M241.58 659.423C240.008 659.478 238.173 659.423 237.201 658.177C236.726 657.452 236.454 656.614 236.41 655.748C235.666 650.265 235.302 644.736 235.32 639.202C235.32 637.183 235.411 635.036 236.537 633.372C237.364 632.356 238.306 631.44 239.345 630.643C241.753 628.414 243.506 625.185 246.614 624.157C247.975 623.761 249.418 623.742 250.79 624.102C252.161 624.463 253.409 625.189 254.4 626.204C256.361 628.297 257.575 630.98 257.853 633.836C258.307 637.219 257.925 640.903 259.715 643.841C260.424 644.978 261.414 645.906 262.214 646.98C264.939 650.618 267.384 657.74 261.759 659.214C255.799 660.769 247.767 659.223 241.58 659.423Z" fill="#3F3D56"/>
<path d="M255.218 237.018C258.398 230.869 256.499 222.955 251.956 217.734C247.413 212.513 240.772 209.602 233.994 208.028C224.908 205.9 215.168 205.918 206.473 209.265C199.541 211.931 193.571 216.542 187.175 220.308C175.871 226.97 163.22 231.011 150.151 232.133C135.614 233.361 119.378 231.451 108.139 240.72C87.5503 257.693 101.888 295.942 82.6985 314.462C77.5197 319.456 70.6054 322.157 64.6724 326.223C58.7395 330.289 53.4334 336.793 54.3874 343.924C54.8417 347.354 56.7134 350.446 58.8758 353.148C68.1614 364.763 83.7525 370.849 98.4986 369.039C113.245 367.229 126.746 357.75 133.933 344.707C135.75 341.441 137.222 337.866 140.084 335.492C145.817 330.753 154.23 332.672 161.662 332.445C178.189 331.936 193.199 317.755 194.644 301.254C195.261 294.205 194.062 286 199.123 281.052C203.202 277.05 209.581 277.086 215.159 275.858C225.408 273.611 232.867 266.189 237.546 257.129C239.691 252.963 239.473 248.306 242.653 244.849C246.041 241.047 252.193 242.857 255.218 237.018Z" fill="#3F3D56"/>
<g opacity="0.1">
<path opacity="0.1" d="M136.604 235.016C142.632 234.502 148.59 233.365 154.385 231.623C152.749 231.851 151.114 232.042 149.469 232.178C138.076 233.133 125.61 232.178 115.343 236.19C122.339 235.471 129.672 235.598 136.604 235.016Z" fill="black"/>
<path opacity="0.1" d="M126.464 338.376C123.602 340.741 122.094 344.324 120.313 347.59C114.807 357.527 105.989 365.211 95.4001 369.302C96.2088 369.248 97.0174 369.175 97.826 369.075C112.572 367.256 126.074 357.796 133.26 344.752C135.077 341.486 136.54 337.903 139.411 335.538L139.902 335.156C134.914 335.037 130.135 335.337 126.464 338.376Z" fill="black"/>
<path opacity="0.1" d="M251.274 217.788C246.732 212.567 240.045 209.665 233.312 208.083C224.226 205.954 214.486 205.981 205.782 209.329L205.201 209.565C210.322 209.274 215.457 209.73 220.447 210.921C227.179 212.503 233.875 215.405 238.409 220.635C242.943 225.866 244.851 233.77 241.671 239.919C238.645 245.759 232.494 243.94 229.033 247.714C225.853 251.162 226.071 255.828 223.926 259.994C219.901 267.79 213.805 274.357 205.664 277.477C208.508 276.804 211.561 276.504 214.396 275.885C224.644 273.629 232.104 266.216 236.783 257.156C238.936 252.99 238.718 248.324 241.889 244.876C245.36 241.102 251.511 242.912 254.527 237.081C257.707 230.95 255.808 223.037 251.274 217.788Z" fill="black"/>
<path opacity="0.1" d="M201.54 278.732C195.961 279.951 189.583 279.924 185.503 283.917C180.443 288.875 181.642 297.079 181.024 304.129C179.943 316.454 171.284 327.488 160.082 332.499H160.908C177.435 331.99 192.436 317.8 193.88 301.309C194.507 294.25 193.308 286.046 198.369 281.097C199.528 279.99 200.892 279.118 202.385 278.532L201.54 278.732Z" fill="black"/>
</g>
<path d="M255.49 319.801C254.736 321.138 253.182 321.757 251.738 322.294C236.783 327.806 221.046 333.418 205.273 331.099C204.683 328.615 204.101 326.123 203.52 323.64C202.678 320.038 201.83 316.436 200.976 312.834C200.576 311.114 200.167 309.377 199.84 307.631C199.277 304.873 199.096 302.051 199.304 299.244C199.4 298.227 199.583 297.219 199.849 296.233C200.316 294.439 201.097 292.742 202.157 291.221C202.339 290.976 202.529 290.73 202.729 290.493C203.628 289.409 204.718 288.499 205.946 287.81C208.626 286.337 212.306 285.709 213.387 282.853C213.805 281.359 213.764 279.774 213.269 278.305C212.36 274.666 210.716 271.246 209.698 267.644C208.408 263.096 210.352 263.378 214.741 262.277C222.645 260.285 230.913 258.857 239.027 260.458C238.645 264.47 238.273 268.581 239.281 272.492C240.29 276.404 242.988 280.115 246.868 281.197C247.44 281.361 248.049 281.461 248.685 281.597C249.527 281.733 250.327 282.063 251.02 282.562C251.498 282.957 251.878 283.458 252.128 284.026C252.523 284.986 252.783 285.996 252.901 287.028C254.324 296.573 255.351 306.163 255.981 315.799V316.163C256.168 317.398 255.997 318.66 255.49 319.801Z" fill="#FBBEBE"/>
<path d="M178.497 304.129C175.099 309.305 173.955 315.599 172.919 321.712L166.323 360.006C165.414 365.246 164.605 371.003 167.286 375.597C168.194 377.152 169.466 378.499 170.129 380.145C170.631 381.802 170.959 383.506 171.111 385.23C172.655 394.008 181.278 399.929 189.927 402.058C193.053 402.831 196.705 403.131 199.167 401.048C201.893 398.783 201.893 394.471 200.285 391.361C198.677 388.25 195.742 386.048 192.898 383.965L183.476 377.016L188.928 335.174C189.328 332.136 190.745 328.197 193.816 328.534C196.614 328.834 198.768 332.918 201.257 331.599C202.037 331.07 202.587 330.264 202.793 329.343C203.883 325.914 203.583 322.221 203.274 318.628L202.148 305.657C201.775 301.446 202.856 298.289 203.365 294.332C203.956 289.721 200.885 291.121 197.096 292.113C189.818 294.041 182.704 297.707 178.497 304.129Z" fill="#FBBEBE"/>
<path d="M295.658 367.019C294.966 368.185 293.941 369.116 292.715 369.693C285.358 373.846 276.707 375.064 268.492 373.104C266.599 372.547 264.676 372.098 262.732 371.758C259.624 371.376 256.463 371.995 253.328 371.758C246.968 371.276 241.38 367.301 236.974 362.662C234.321 359.933 231.913 355.467 234.384 352.538C235.075 351.831 235.932 351.311 236.877 351.024C237.822 350.738 238.824 350.696 239.79 350.901C241.714 351.33 243.57 352.021 245.305 352.956C251.386 355.779 257.892 357.574 264.558 358.269C269.101 358.742 274.879 357.968 276.451 353.648C277.214 351.547 276.678 349.218 276.142 347.044C274.676 341.089 273.211 335.131 271.745 329.17C271.644 328.65 271.46 328.149 271.2 327.688C271.125 327.563 271.037 327.447 270.936 327.342C270.357 326.859 269.656 326.544 268.91 326.432C265.521 325.595 262.132 324.24 259.706 321.739C258.116 319.963 256.849 317.922 255.963 315.708C255.708 315.153 255.472 314.589 255.227 314.025C253.364 309.677 251.402 305.22 249.885 300.654C248.825 297.567 248.044 294.392 247.55 291.167C247.15 288.374 246.932 287.092 248.458 285.854C248.867 285.545 249.302 285.272 249.757 285.036C250.457 284.663 251.247 284.29 252.083 283.935L252.892 283.599C255.377 282.604 257.931 281.789 260.533 281.161C266.838 279.696 273.571 282.753 277.896 287.583C282.221 292.413 284.465 298.735 285.9 305.056C287.336 311.378 288.072 317.855 289.871 324.076C290.57 326.514 291.443 328.915 292.042 331.353C292.686 334.253 293.144 337.191 293.414 340.149C294.268 347.687 295.119 355.224 295.967 362.762C296.281 364.181 296.173 365.66 295.658 367.019Z" fill="#FBBEBE"/>
<path d="M202.366 363.744C204.183 375.351 198.959 386.767 193.907 397.4C196.769 399.492 200.267 400.529 203.684 401.43C226.549 407.447 250.318 409.238 273.825 406.715C274.389 402.785 274.916 398.619 273.307 394.999C272.308 392.752 270.582 390.924 269.482 388.722C267.665 385.084 267.847 380.854 268.047 376.816L269.673 342.405C258.398 337.202 245.323 342.078 232.921 342.778C226.498 343.142 219.992 342.36 213.66 343.497C210.371 344.088 200.031 345.716 198.477 349.109C196.924 352.502 201.812 360.051 202.366 363.744Z" fill="#FBBEBE"/>
<path opacity="0.05" d="M202.366 363.744C204.183 375.351 198.959 386.767 193.907 397.4C196.769 399.492 200.267 400.529 203.684 401.43C226.549 407.447 250.318 409.238 273.825 406.715C274.389 402.785 274.916 398.619 273.307 394.999C272.308 392.752 270.582 390.924 269.482 388.722C267.665 385.084 267.847 380.854 268.047 376.816L269.673 342.405C258.398 337.202 245.323 342.078 232.921 342.778C226.498 343.142 219.992 342.36 213.66 343.497C210.371 344.088 200.031 345.716 198.477 349.109C196.924 352.502 201.812 360.051 202.366 363.744Z" fill="black"/>
<path d="M232.24 397.054C220.02 394.508 208.008 390.296 195.534 390.005C194.907 389.941 194.276 390.061 193.717 390.351C193.108 390.855 192.701 391.562 192.572 392.343C191.282 396.8 190.128 401.29 189.11 405.814C185.73 420.85 184.068 437.46 191.5 450.958C191.427 446.574 194.18 442.471 197.86 440.043C201.539 437.614 205.946 436.632 210.307 436.232C214.668 435.831 219.329 435.995 223.391 437.787C226.229 439.078 228.678 441.094 230.491 443.633C232.304 446.172 233.418 449.144 233.721 452.25L276.651 453.642C276.902 453.715 277.168 453.725 277.424 453.669C277.68 453.614 277.918 453.495 278.116 453.325C278.315 453.154 278.468 452.936 278.561 452.691C278.654 452.446 278.685 452.182 278.65 451.922C280.233 438.135 280.175 424.208 278.477 410.435C278.005 406.587 277.941 401.248 273.616 399.801C268.456 398.073 260.297 400.093 254.782 399.856C247.204 399.537 239.665 398.6 232.24 397.054Z" fill="#3F3D56"/>
<path d="M271.208 329.67L271.072 348.772L227.642 350.219C219.674 350.491 211.643 350.764 203.874 352.538C201.639 353.047 199.431 353.684 197.233 354.312C194.943 345.916 192.69 337.12 193.289 328.561C193.455 326.252 193.857 323.966 194.489 321.739C195.87 316.936 198.459 312.406 199.84 307.658C200.397 305.809 200.702 303.894 200.749 301.964C200.646 300.036 200.341 298.124 199.84 296.26C199.442 294.732 199.252 293.156 199.277 291.576L202.72 290.512C202.82 290.921 202.902 291.321 202.975 291.74C203.12 292.604 203.238 293.486 203.32 294.368C203.514 296.555 203.575 298.751 203.502 300.945C203.384 305.329 202.793 310.214 205.528 313.679C209.08 318.127 215.913 317.436 221.491 316.326L236.101 313.407C240.717 312.497 245.868 311.205 248.276 307.158C249.303 305.192 249.845 303.009 249.857 300.79V300.354C250.074 295.522 249.594 290.685 248.431 285.991C248.076 284.517 247.64 283.062 247.149 281.634H248.612C249.455 281.769 250.254 282.099 250.947 282.598C251.425 282.993 251.805 283.495 252.056 284.062L252.864 283.726C256.088 296.918 261.401 309.509 268.601 321.02C269.527 322.338 270.261 323.78 270.781 325.304C270.998 326.131 271.119 326.979 271.145 327.833C271.218 328.37 271.208 329.016 271.208 329.67Z" fill="#FDD835"/>
<path d="M225.326 271.856C239.878 271.856 251.674 260.045 251.674 245.477C251.674 230.908 239.878 219.098 225.326 219.098C210.774 219.098 198.977 230.908 198.977 245.477C198.977 260.045 210.774 271.856 225.326 271.856Z" fill="#FBBEBE"/>
<path d="M178.497 304.128C175.099 309.304 173.955 315.599 172.919 321.711L166.323 360.006C165.414 365.245 164.605 371.003 167.286 375.597C168.194 377.152 169.466 378.498 170.129 380.145C170.631 381.801 170.959 383.505 171.111 385.229C172.655 394.007 181.278 399.929 189.927 402.057C193.053 402.83 196.705 403.131 199.167 401.048C201.893 398.783 201.893 394.471 200.285 391.36C198.677 388.249 195.742 386.048 192.898 383.965L183.476 377.016L188.928 335.174C189.291 332.163 182.704 297.707 178.497 304.128Z" fill="#FBBEBE"/>
<path d="M285.909 305.111C287.345 311.433 288.081 317.91 289.88 324.131C290.579 326.578 291.452 328.97 292.051 331.408C292.695 334.305 293.153 337.24 293.423 340.195L295.976 362.808C296.27 364.205 296.16 365.656 295.658 366.992C294.964 368.156 293.939 369.087 292.715 369.666C285.355 373.808 276.708 375.026 268.492 373.077C266.601 372.512 264.677 372.062 262.732 371.731C259.624 371.34 256.463 371.968 253.328 371.731C246.968 371.249 241.38 367.283 236.974 362.681C234.321 359.952 231.913 355.476 234.384 352.547C235.075 351.841 235.932 351.32 236.877 351.034C237.822 350.748 238.824 350.705 239.79 350.91C241.714 351.342 243.57 352.037 245.305 352.975C251.388 355.79 257.893 357.582 264.558 358.278C269.101 358.76 274.879 357.987 276.451 353.657C277.214 351.556 276.678 349.227 276.142 347.053L271.745 329.18C271.563 328.561 284.474 298.799 285.909 305.111Z" fill="#FBBEBE"/>
<path d="M209.017 253.6C207.845 249.388 206.2 244.122 209.499 241.266C210.684 240.349 212.112 239.802 213.605 239.692C221.01 238.782 228.669 243.148 235.756 240.82C238.017 240.08 240.015 238.702 241.51 236.85C243.005 234.999 243.933 232.754 244.182 230.386C244.431 228.018 243.99 225.629 242.912 223.507C241.835 221.384 240.167 219.619 238.109 218.425C235.011 216.606 231.313 216.251 227.743 215.933C218.339 215.069 208.536 214.268 199.741 217.752C190.946 221.236 183.532 230.205 185.349 239.492C186.194 243.922 188.929 247.733 191.709 251.262C193.844 253.946 202.412 266.726 205.855 266.544C210.707 266.271 209.78 256.338 209.017 253.6Z" fill="#3F3D56"/>
<path opacity="0.1" d="M238.109 218.425C237.584 218.121 237.038 217.857 236.474 217.634C238.069 219.083 239.257 220.926 239.917 222.979C240.577 225.032 240.688 227.223 240.237 229.332C239.786 231.441 238.79 233.394 237.348 234.997C235.907 236.599 234.07 237.795 232.022 238.464C224.935 240.792 217.276 236.426 209.871 237.336C208.378 237.446 206.95 237.993 205.764 238.909C202.466 241.766 204.111 247.032 205.283 251.244C206.046 253.973 206.973 263.915 202.139 264.187H202.057C203.556 265.652 204.91 266.607 205.873 266.552C210.707 266.28 209.78 256.347 209.017 253.609C207.845 249.397 206.2 244.131 209.498 241.274C210.684 240.358 212.112 239.811 213.605 239.701C221.01 238.791 228.669 243.157 235.756 240.829C238.017 240.089 240.015 238.71 241.51 236.859C243.005 235.008 243.933 232.763 244.182 230.395C244.431 228.027 243.99 225.638 242.912 223.515C241.835 221.393 240.167 219.628 238.109 218.434V218.425Z" fill="black"/>
<path d="M625.097 546.558H328.903V638.429H625.097V546.558Z" fill="#3F3D56"/>
<path d="M464.28 576.248V608.721L489.72 592.485L464.28 576.248Z" fill="white"/>
<path d="M237.137 31.045L223.036 39.9956L231.595 24.4139C229.169 22.4755 226.167 21.4031 223.063 21.3667H222.836C221.857 21.3811 220.878 21.308 219.911 21.1484L215.132 24.1774L217.185 20.448C213.795 19.2672 210.867 17.0373 208.826 14.0807L200.267 19.5384L205.673 9.70549C200.667 3.69296 193.926 0.0090332 186.512 0.0090332C177.617 0.0090332 169.694 5.30297 164.579 13.5532C163.066 16.0304 160.923 18.0604 158.368 19.435C155.814 20.8096 152.94 21.4794 150.042 21.3758H149.56C139.738 21.3758 131.779 32.5186 131.779 46.2719C131.779 60.0252 139.738 71.1679 149.56 71.1679C151.721 71.1578 153.847 70.6242 155.756 69.6125C159.098 67.9844 162.753 67.1037 166.468 67.0315C170.183 66.9592 173.87 67.6972 177.271 69.1941C180.15 70.4832 183.268 71.1495 186.421 71.1495C189.574 71.1495 192.692 70.4832 195.57 69.1941C198.948 67.728 202.601 67.0066 206.282 67.0788C209.963 67.151 213.585 68.0151 216.903 69.6125C218.794 70.6029 220.894 71.1238 223.027 71.1316C232.849 71.1316 240.808 59.9797 240.808 46.2355C240.875 40.944 239.613 35.7205 237.137 31.045Z" fill="#F2F2F2"/>
<path opacity="0.03" d="M210.552 67.4752C205.43 66.5028 200.135 67.0791 195.342 69.1307C192.463 70.417 189.346 71.0818 186.193 71.0818C183.04 71.0818 179.923 70.417 177.044 69.1307C173.641 67.637 169.954 66.9015 166.239 66.9754C162.524 67.0492 158.87 67.9305 155.529 69.5582C153.618 70.566 151.492 71.0965 149.332 71.1045C140.61 71.1045 133.351 62.3086 131.842 50.7019C133.581 49.4259 135.061 47.8299 136.203 45.9993C141.319 37.74 149.241 32.446 158.136 32.446C167.031 32.446 174.854 37.6763 179.942 45.8446C181.473 48.3014 183.611 50.3212 186.15 51.7091C188.688 53.0969 191.542 53.8058 194.434 53.7673H194.661C201.611 53.7673 207.626 59.3433 210.552 67.4752Z" fill="black"/>
<path d="M719.588 233.925L712.556 238.391L716.826 230.614C715.617 229.649 714.121 229.115 712.574 229.095H712.456C711.97 229.103 711.483 229.069 711.002 228.995L708.576 230.523L709.603 228.658C707.913 228.071 706.453 226.963 705.433 225.493L701.162 228.221L703.888 223.319C702.754 221.853 701.307 220.658 699.654 219.821C698.001 218.984 696.182 218.526 694.33 218.479C689.896 218.479 685.944 221.117 683.427 225.238C682.67 226.475 681.598 227.488 680.32 228.174C679.043 228.859 677.607 229.193 676.159 229.14H675.922C671.025 229.14 667.055 234.707 667.055 241.556C667.055 248.406 671.025 253.982 675.922 253.982C676.999 253.977 678.059 253.712 679.012 253.208C680.678 252.396 682.5 251.956 684.353 251.918C686.205 251.881 688.044 252.246 689.742 252.99C691.17 253.637 692.718 253.975 694.285 253.982C695.849 253.976 697.395 253.648 698.828 253.017C700.512 252.286 702.333 251.926 704.169 251.96C706.004 251.995 707.811 252.423 709.467 253.218C710.408 253.715 711.455 253.977 712.52 253.982C717.417 253.982 721.387 248.415 721.387 241.556C721.441 238.901 720.822 236.276 719.588 233.925Z" fill="#F2F2F2"/>
<path opacity="0.03" d="M706.297 252.099C703.739 251.608 701.093 251.896 698.701 252.927C697.271 253.565 695.723 253.895 694.158 253.895C692.593 253.895 691.045 253.565 689.615 252.927C687.918 252.184 686.079 251.818 684.227 251.854C682.375 251.89 680.552 252.328 678.885 253.136C677.934 253.643 676.874 253.912 675.796 253.918C671.444 253.918 667.828 249.525 667.073 243.74C667.941 243.104 668.678 242.308 669.245 241.393C671.798 237.272 675.75 234.635 680.148 234.635C684.545 234.635 688.489 237.245 691.051 241.311C691.814 242.547 692.886 243.564 694.16 244.261C695.434 244.958 696.868 245.311 698.319 245.286H698.428C701.835 245.259 704.843 248.042 706.297 252.099Z" fill="black"/>
<path d="M735.152 117.94L746.446 125.117L739.577 112.628C741.521 111.079 743.925 110.221 746.41 110.19H746.591C747.376 110.202 748.161 110.144 748.935 110.017L752.77 112.446L751.125 109.462C753.836 108.51 756.179 106.728 757.821 104.369L764.681 108.717L760.347 100.839C764.354 96.0184 769.76 93.0713 775.702 93.0713C782.834 93.0713 789.176 97.3101 793.274 103.923C794.485 105.902 796.199 107.524 798.24 108.625C800.281 109.726 802.577 110.266 804.894 110.19H805.276C813.144 110.19 819.522 119.123 819.522 130.138C819.522 141.153 813.162 150.086 805.276 150.086C803.546 150.077 801.844 149.649 800.315 148.84C797.635 147.531 794.702 146.824 791.721 146.766C788.74 146.707 785.781 147.3 783.052 148.503C780.747 149.534 778.25 150.067 775.725 150.067C773.199 150.067 770.703 149.534 768.397 148.503C765.692 147.327 762.765 146.747 759.816 146.804C756.867 146.86 753.965 147.551 751.307 148.83C749.788 149.622 748.103 150.04 746.392 150.049C738.523 150.049 732.145 141.117 732.145 130.102C732.116 125.86 733.15 121.678 735.152 117.94Z" fill="#F2F2F2"/>
<path opacity="0.03" d="M756.44 147.13C760.552 146.346 764.804 146.808 768.651 148.458C770.957 149.489 773.454 150.022 775.979 150.022C778.504 150.022 781.001 149.489 783.306 148.458C786.037 147.259 788.995 146.669 791.976 146.729C794.957 146.788 797.889 147.496 800.569 148.804C802.099 149.61 803.801 150.035 805.53 150.041C812.517 150.041 818.332 142.991 819.549 133.668C818.148 132.651 816.959 131.368 816.051 129.893C811.954 123.289 805.603 119.041 798.48 119.041C791.356 119.041 785.078 123.234 780.98 129.774C779.756 131.747 778.044 133.369 776.01 134.484C773.975 135.6 771.688 136.171 769.369 136.142H769.187C763.609 136.151 758.784 140.617 756.44 147.13Z" fill="black"/>
<path d="M406.588 257.168C409.012 257.168 410.956 257.78 412.42 259.004C413.908 260.204 414.928 261.776 415.48 263.72L412.42 264.332C411.94 262.916 411.184 261.8 410.152 260.984C409.144 260.144 407.956 259.724 406.588 259.724C404.692 259.724 403.12 260.516 401.872 262.1C400.624 263.684 400 265.892 400 268.724C400 271.532 400.552 273.788 401.656 275.492C402.784 277.196 404.428 278.048 406.588 278.048C408.388 278.048 409.804 277.58 410.836 276.644C411.892 275.684 412.42 274.424 412.42 272.864H415.48C415.48 275.24 414.664 277.124 413.032 278.516C411.424 279.908 409.204 280.604 406.372 280.604C403.564 280.604 401.284 279.524 399.532 277.364C397.804 275.204 396.94 272.312 396.94 268.688C396.94 265.064 397.84 262.244 399.64 260.228C401.44 258.188 403.756 257.168 406.588 257.168ZM431.474 269.048C431.474 267.488 431.15 266.372 430.502 265.7C429.854 265.028 428.906 264.692 427.658 264.692C426.434 264.692 425.438 264.944 424.67 265.448C423.926 265.928 423.554 266.696 423.554 267.752H420.422C420.422 265.112 421.838 263.48 424.67 262.856C425.534 262.664 426.47 262.568 427.478 262.568C429.614 262.568 431.282 263.108 432.482 264.188C433.682 265.268 434.282 266.912 434.282 269.12V280.208H431.834L431.546 277.328C430.49 279.512 428.582 280.604 425.822 280.604C423.974 280.604 422.486 280.088 421.358 279.056C420.254 278.024 419.702 276.74 419.702 275.204C419.702 273.668 420.314 272.468 421.538 271.604C422.786 270.74 424.334 270.308 426.182 270.308C428.03 270.308 429.794 270.62 431.474 271.244V269.048ZM431.474 273.044C429.77 272.564 428.282 272.324 427.01 272.324C425.738 272.324 424.706 272.552 423.914 273.008C423.122 273.464 422.726 274.184 422.726 275.168C422.726 277.328 423.95 278.408 426.398 278.408C427.79 278.408 428.978 277.916 429.962 276.932C430.97 275.924 431.474 274.628 431.474 273.044ZM452.23 265.556V255.692H455.038V280.208H452.734L452.374 277.328C451.822 278.408 451.09 279.224 450.178 279.776C449.266 280.328 448.27 280.604 447.19 280.604C445.006 280.604 443.17 279.764 441.682 278.084C440.218 276.404 439.486 274.22 439.486 271.532C439.486 268.82 440.206 266.648 441.646 265.016C443.11 263.384 444.946 262.568 447.154 262.568C449.386 262.568 451.078 263.564 452.23 265.556ZM447.334 265.088C445.942 265.088 444.766 265.676 443.806 266.852C442.87 268.028 442.402 269.6 442.402 271.568C442.402 273.536 442.882 275.12 443.842 276.32C444.802 277.496 445.954 278.084 447.298 278.084C448.642 278.084 449.782 277.64 450.718 276.752C451.678 275.84 452.182 274.628 452.23 273.116V270.308C452.23 268.7 451.762 267.428 450.826 266.492C449.89 265.556 448.726 265.088 447.334 265.088ZM472.993 269.048C472.993 267.488 472.669 266.372 472.021 265.7C471.373 265.028 470.425 264.692 469.177 264.692C467.953 264.692 466.957 264.944 466.189 265.448C465.445 265.928 465.073 266.696 465.073 267.752H461.941C461.941 265.112 463.357 263.48 466.189 262.856C467.053 262.664 467.989 262.568 468.997 262.568C471.133 262.568 472.801 263.108 474.001 264.188C475.201 265.268 475.801 266.912 475.801 269.12V280.208H473.353L473.065 277.328C472.009 279.512 470.101 280.604 467.341 280.604C465.493 280.604 464.005 280.088 462.877 279.056C461.773 278.024 461.221 276.74 461.221 275.204C461.221 273.668 461.833 272.468 463.057 271.604C464.305 270.74 465.853 270.308 467.701 270.308C469.549 270.308 471.313 270.62 472.993 271.244V269.048ZM472.993 273.044C471.289 272.564 469.801 272.324 468.529 272.324C467.257 272.324 466.225 272.552 465.433 273.008C464.641 273.464 464.245 274.184 464.245 275.168C464.245 277.328 465.469 278.408 467.917 278.408C469.309 278.408 470.497 277.916 471.481 276.932C472.489 275.924 472.993 274.628 472.993 273.044ZM481.582 267.212C481.582 265.796 482.182 264.668 483.382 263.828C484.606 262.988 486.25 262.568 488.314 262.568C490.378 262.568 491.986 263 493.138 263.864C494.314 264.728 494.926 265.82 494.974 267.14H492.202C491.986 265.58 490.666 264.8 488.242 264.8C487.066 264.8 486.154 265.064 485.506 265.592C484.882 266.12 484.57 266.696 484.57 267.32C484.57 267.92 484.81 268.436 485.29 268.868C485.77 269.276 486.538 269.636 487.594 269.948L491.05 271.1C492.514 271.556 493.63 272.144 494.398 272.864C495.19 273.56 495.586 274.532 495.586 275.78C495.586 277.004 494.95 278.12 493.678 279.128C492.406 280.112 490.63 280.604 488.35 280.604C486.07 280.604 484.294 280.1 483.022 279.092C481.75 278.06 481.078 276.74 481.006 275.132H483.742C483.79 276.212 484.222 277.028 485.038 277.58C485.878 278.108 486.922 278.372 488.17 278.372C489.418 278.372 490.45 278.108 491.266 277.58C492.082 277.052 492.49 276.428 492.49 275.708C492.49 274.964 492.25 274.4 491.77 274.016C491.29 273.632 490.51 273.296 489.43 273.008L486.082 271.892C483.082 271.004 481.582 269.444 481.582 267.212ZM510.431 279.704C508.367 280.664 506.483 280.868 504.779 280.316C503.555 279.932 502.691 279.128 502.187 277.904C501.923 277.304 501.791 276.584 501.791 275.744V265.16H499.019V263H501.791V258.212H504.599V263H509.999V265.16H504.599V275.708C504.599 277.46 505.415 278.336 507.047 278.336C507.935 278.336 508.931 278.12 510.035 277.688L510.431 279.704ZM521.986 265.412C519.274 265.412 517.87 267.548 517.774 271.82V280.208H514.93V262.964H517.774V266.276C518.638 263.876 520.162 262.676 522.346 262.676C523.042 262.676 523.702 262.784 524.326 263L524.182 265.772C523.462 265.532 522.73 265.412 521.986 265.412ZM539.333 269.048C539.333 267.488 539.009 266.372 538.361 265.7C537.713 265.028 536.765 264.692 535.517 264.692C534.293 264.692 533.297 264.944 532.529 265.448C531.785 265.928 531.413 266.696 531.413 267.752H528.281C528.281 265.112 529.697 263.48 532.529 262.856C533.393 262.664 534.329 262.568 535.337 262.568C537.473 262.568 539.141 263.108 540.341 264.188C541.541 265.268 542.141 266.912 542.141 269.12V280.208H539.693L539.405 277.328C538.349 279.512 536.441 280.604 533.681 280.604C531.833 280.604 530.345 280.088 529.217 279.056C528.113 278.024 527.561 276.74 527.561 275.204C527.561 273.668 528.173 272.468 529.397 271.604C530.645 270.74 532.193 270.308 534.041 270.308C535.889 270.308 537.653 270.62 539.333 271.244V269.048ZM539.333 273.044C537.629 272.564 536.141 272.324 534.869 272.324C533.597 272.324 532.565 272.552 531.773 273.008C530.981 273.464 530.585 274.184 530.585 275.168C530.585 277.328 531.809 278.408 534.257 278.408C535.649 278.408 536.837 277.916 537.821 276.932C538.829 275.924 539.333 274.628 539.333 273.044ZM555.842 265.412C553.13 265.412 551.726 267.548 551.63 271.82V280.208H548.786V262.964H551.63V266.276C552.494 263.876 554.018 262.676 556.202 262.676C556.898 262.676 557.558 262.784 558.182 263L558.038 265.772C557.318 265.532 556.586 265.412 555.842 265.412Z" fill="#FDD835"/>
<path d="M436.52 395.982H446.6V398.466H433.676V375.822H436.52V395.982ZM456.708 380.826C459.108 380.826 461.04 381.606 462.504 383.166C463.992 384.726 464.736 386.958 464.736 389.862C464.736 392.742 463.992 394.962 462.504 396.522C461.04 398.082 459.108 398.862 456.708 398.862C454.308 398.862 452.364 398.082 450.876 396.522C449.412 394.962 448.68 392.742 448.68 389.862C448.68 386.958 449.412 384.726 450.876 383.166C452.364 381.606 454.308 380.826 456.708 380.826ZM461.856 389.862C461.856 387.798 461.424 386.19 460.56 385.038C459.696 383.862 458.424 383.274 456.744 383.274C455.088 383.274 453.816 383.862 452.928 385.038C452.04 386.19 451.596 387.798 451.596 389.862C451.596 391.902 452.016 393.51 452.856 394.686C453.696 395.838 454.944 396.414 456.6 396.414C458.28 396.414 459.576 395.838 460.488 394.686C461.4 393.51 461.856 391.902 461.856 389.862ZM470.888 397.926C469.448 397.23 468.728 396.162 468.728 394.722C468.728 393.978 469.004 393.33 469.556 392.778C470.132 392.202 470.84 391.818 471.68 391.626C470.384 390.474 469.736 388.962 469.736 387.09C469.736 385.218 470.396 383.706 471.716 382.554C473.06 381.402 474.644 380.826 476.468 380.826C478.292 380.826 479.84 381.258 481.112 382.122C481.28 380.85 481.784 379.83 482.624 379.062C483.488 378.294 484.616 377.91 486.008 377.91L485.756 380.718C483.644 380.718 482.54 381.606 482.444 383.382C483.284 384.414 483.704 385.65 483.704 387.09C483.704 388.938 483.032 390.462 481.688 391.662C480.368 392.838 478.712 393.426 476.72 393.426C475.352 393.426 474.14 393.15 473.084 392.598C472.604 392.694 472.172 392.922 471.788 393.282C471.404 393.618 471.212 394.086 471.212 394.686C471.212 395.958 472.268 396.594 474.38 396.594H481.076C482.684 396.594 483.956 396.942 484.892 397.638C485.828 398.31 486.296 399.258 486.296 400.482C486.296 402.306 485.372 403.902 483.524 405.27C481.7 406.638 479.384 407.322 476.576 407.322C473.768 407.322 471.56 406.794 469.952 405.738C468.344 404.706 467.54 403.398 467.54 401.814C467.54 400.782 467.84 399.942 468.44 399.294C469.064 398.646 469.88 398.19 470.888 397.926ZM470.348 401.706C470.348 402.618 470.84 403.398 471.824 404.046C472.832 404.718 474.344 405.054 476.36 405.054C478.4 405.054 480.092 404.61 481.436 403.722C482.804 402.858 483.488 401.838 483.488 400.662C483.488 400.11 483.284 399.63 482.876 399.222C482.492 398.838 481.892 398.646 481.076 398.646H474.128C472.904 398.694 471.968 398.982 471.32 399.51C470.672 400.062 470.348 400.794 470.348 401.706ZM480.932 387.09C480.932 385.842 480.56 384.834 479.816 384.066C479.072 383.274 478.04 382.878 476.72 382.878C475.424 382.878 474.404 383.274 473.66 384.066C472.916 384.834 472.544 385.842 472.544 387.09C472.544 388.338 472.916 389.37 473.66 390.186C474.428 390.978 475.46 391.374 476.756 391.374C478.052 391.374 479.072 390.966 479.816 390.15C480.56 389.334 480.932 388.314 480.932 387.09ZM501.179 387.306C501.179 385.746 500.855 384.63 500.207 383.958C499.559 383.286 498.611 382.95 497.363 382.95C496.139 382.95 495.143 383.202 494.375 383.706C493.631 384.186 493.259 384.954 493.259 386.01H490.127C490.127 383.37 491.543 381.738 494.375 381.114C495.239 380.922 496.175 380.826 497.183 380.826C499.319 380.826 500.987 381.366 502.187 382.446C503.387 383.526 503.987 385.17 503.987 387.378V398.466H501.539L501.251 395.586C500.195 397.77 498.287 398.862 495.527 398.862C493.679 398.862 492.191 398.346 491.063 397.314C489.959 396.282 489.407 394.998 489.407 393.462C489.407 391.926 490.019 390.726 491.243 389.862C492.491 388.998 494.039 388.566 495.887 388.566C497.735 388.566 499.499 388.878 501.179 389.502V387.306ZM501.179 391.302C499.475 390.822 497.987 390.582 496.715 390.582C495.443 390.582 494.411 390.81 493.619 391.266C492.827 391.722 492.431 392.442 492.431 393.426C492.431 395.586 493.655 396.666 496.103 396.666C497.495 396.666 498.683 396.174 499.667 395.19C500.675 394.182 501.179 392.886 501.179 391.302ZM517.688 383.67C514.976 383.67 513.572 385.806 513.476 390.078V398.466H510.632V381.222H513.476V384.534C514.34 382.134 515.864 380.934 518.048 380.934C518.744 380.934 519.404 381.042 520.028 381.258L519.884 384.03C519.164 383.79 518.432 383.67 517.688 383.67Z" fill="#FDD835"/>
<rect x="350.712" y="69.1848" width="250.968" height="95.7326" fill="#006064" fill-opacity="0.5"/>
<path d="M370.328 113.121H376.949V113.341C377.417 113.136 377.896 112.975 378.384 112.857C378.872 112.73 379.375 112.667 379.893 112.667C381.006 112.667 382.041 112.877 382.998 113.297C383.955 113.717 384.786 114.288 385.489 115.011C386.192 115.733 386.739 116.578 387.129 117.545C387.53 118.512 387.73 119.537 387.73 120.621C387.73 121.715 387.535 122.745 387.144 123.712C386.763 124.679 386.226 125.523 385.533 126.246C384.839 126.959 384.009 127.525 383.042 127.945C382.085 128.355 381.036 128.561 379.893 128.561C379.248 128.561 378.648 128.497 378.091 128.37C377.535 128.253 376.997 128.082 376.48 127.857V131.183H379.38V135.196H369.478V131.183H371.968V117.135H370.328V113.121ZM379.571 116.71C378.955 116.71 378.379 116.871 377.842 117.193C377.305 117.516 376.851 117.97 376.48 118.556V122.833C376.792 123.331 377.217 123.736 377.754 124.049C378.291 124.361 378.897 124.518 379.571 124.518C380.069 124.518 380.542 124.425 380.992 124.239C381.441 124.044 381.831 123.775 382.163 123.434C382.495 123.082 382.759 122.672 382.954 122.203C383.15 121.725 383.247 121.207 383.247 120.65C383.247 120.035 383.15 119.483 382.954 118.995C382.769 118.507 382.51 118.097 382.178 117.765C381.846 117.423 381.455 117.164 381.006 116.988C380.557 116.803 380.078 116.71 379.571 116.71ZM403.565 118.644H399.449V117.076C399.048 117.076 398.682 117.105 398.35 117.164C398.018 117.213 397.725 117.301 397.471 117.428C397.227 117.555 397.017 117.73 396.841 117.955C396.675 118.18 396.558 118.458 396.49 118.79V124.283H399.58V128.297H389.678V124.283H391.949V117.135H389.707V113.121H396.46V114.19C396.89 113.849 397.373 113.585 397.911 113.399C398.448 113.214 399.034 113.121 399.668 113.121C400.313 113.121 400.977 113.126 401.661 113.136C402.344 113.146 402.979 113.15 403.565 113.15V118.644ZM405.938 120.65C405.938 119.547 406.138 118.512 406.538 117.545C406.939 116.578 407.495 115.733 408.208 115.011C408.921 114.288 409.771 113.717 410.757 113.297C411.744 112.877 412.828 112.667 414.009 112.667C415.191 112.667 416.275 112.877 417.261 113.297C418.257 113.717 419.112 114.288 419.825 115.011C420.537 115.733 421.089 116.578 421.48 117.545C421.88 118.512 422.08 119.547 422.08 120.65C422.08 121.754 421.885 122.794 421.495 123.771C421.114 124.737 420.567 125.587 419.854 126.319C419.151 127.042 418.301 127.613 417.305 128.033C416.319 128.453 415.22 128.663 414.009 128.663C412.788 128.663 411.68 128.453 410.684 128.033C409.698 127.613 408.853 127.042 408.15 126.319C407.447 125.597 406.9 124.752 406.509 123.785C406.128 122.809 405.938 121.764 405.938 120.65ZM410.318 120.65C410.318 121.227 410.415 121.759 410.611 122.247C410.806 122.726 411.07 123.141 411.402 123.492C411.744 123.844 412.134 124.117 412.574 124.312C413.023 124.508 413.501 124.605 414.009 124.605C414.527 124.605 415.005 124.513 415.445 124.327C415.894 124.132 416.28 123.858 416.602 123.507C416.934 123.155 417.193 122.74 417.378 122.262C417.564 121.773 417.657 121.236 417.657 120.65C417.657 120.045 417.564 119.498 417.378 119.01C417.193 118.521 416.934 118.106 416.602 117.765C416.28 117.423 415.894 117.164 415.445 116.988C415.005 116.803 414.527 116.715 414.009 116.725C413.501 116.715 413.023 116.803 412.574 116.988C412.134 117.164 411.744 117.423 411.402 117.765C411.07 118.106 410.806 118.521 410.611 119.01C410.415 119.498 410.318 120.045 410.318 120.65ZM435.674 118.365C435.254 117.838 434.786 117.442 434.268 117.179C433.75 116.905 433.14 116.788 432.437 116.827C431.87 116.788 431.353 116.866 430.884 117.062C430.425 117.257 430.025 117.53 429.683 117.882C429.351 118.233 429.092 118.653 428.907 119.142C428.721 119.62 428.628 120.162 428.628 120.768C428.628 121.305 428.726 121.812 428.921 122.291C429.117 122.77 429.38 123.185 429.712 123.536C430.054 123.878 430.454 124.146 430.913 124.342C431.382 124.537 431.89 124.654 432.437 124.693C432.896 124.654 433.311 124.562 433.682 124.415C434.063 124.259 434.4 124.063 434.693 123.829C434.986 123.585 435.235 123.316 435.44 123.023C435.655 122.721 435.821 122.438 435.938 122.174L439.966 123.287C439.8 123.873 439.512 124.483 439.102 125.118C438.702 125.753 438.174 126.334 437.52 126.861C436.875 127.379 436.104 127.809 435.205 128.15C434.317 128.492 433.301 128.663 432.159 128.663C430.996 128.663 429.927 128.453 428.951 128.033C427.974 127.604 427.134 127.022 426.431 126.29C425.728 125.558 425.176 124.698 424.776 123.712C424.385 122.726 424.19 121.666 424.19 120.533C424.19 119.41 424.39 118.37 424.79 117.413C425.201 116.446 425.762 115.606 426.475 114.894C427.188 114.171 428.033 113.609 429.009 113.209C429.995 112.809 431.065 112.628 432.217 112.667C433.037 112.628 433.833 112.721 434.605 112.945C435.376 113.17 436.109 113.507 436.802 113.956H439.717V118.365H435.674ZM455.362 118.644H451.245V117.076C450.845 117.076 450.479 117.105 450.147 117.164C449.815 117.213 449.522 117.301 449.268 117.428C449.024 117.555 448.814 117.73 448.638 117.955C448.472 118.18 448.355 118.458 448.286 118.79V124.283H451.377V128.297H441.475V124.283H443.745V117.135H441.504V113.121H448.257V114.19C448.687 113.849 449.17 113.585 449.707 113.399C450.245 113.214 450.83 113.121 451.465 113.121C452.11 113.121 452.774 113.126 453.457 113.136C454.141 113.146 454.776 113.15 455.362 113.15V118.644ZM467.183 127.477C466.841 127.691 466.529 127.877 466.245 128.033C465.962 128.18 465.679 128.297 465.396 128.385C465.113 128.482 464.82 128.551 464.517 128.59C464.214 128.639 463.882 128.663 463.521 128.663C462.613 128.663 461.797 128.541 461.075 128.297C460.362 128.043 459.756 127.701 459.258 127.271C458.77 126.832 458.394 126.319 458.13 125.733C457.867 125.138 457.735 124.493 457.735 123.8C457.735 123.097 457.867 122.447 458.13 121.852C458.404 121.256 458.794 120.748 459.302 120.328C459.81 119.898 460.43 119.566 461.162 119.332C461.905 119.088 462.749 118.966 463.697 118.966C464.39 118.966 465.02 119.005 465.586 119.083C466.162 119.151 466.695 119.239 467.183 119.347V118.878C467.183 118.497 467.11 118.17 466.963 117.896C466.817 117.613 466.612 117.384 466.348 117.208C466.084 117.022 465.767 116.891 465.396 116.812C465.025 116.725 464.62 116.681 464.18 116.681C463.262 116.681 462.452 116.773 461.748 116.959C461.055 117.135 460.386 117.394 459.742 117.735L458.335 114.894C459.331 114.21 460.371 113.688 461.455 113.326C462.549 112.965 463.706 112.784 464.927 112.784C465.874 112.784 466.748 112.892 467.549 113.106C468.36 113.312 469.053 113.653 469.629 114.132C470.205 114.601 470.655 115.216 470.977 115.978C471.309 116.739 471.475 117.667 471.475 118.761V124.283H473.511V128.297H467.183V127.477ZM463.843 125.206C464.536 125.206 465.166 125.094 465.733 124.869C466.299 124.645 466.783 124.371 467.183 124.049V122.115H463.667C463.443 122.115 463.223 122.149 463.008 122.218C462.793 122.286 462.598 122.384 462.422 122.511C462.256 122.638 462.12 122.794 462.012 122.979C461.914 123.165 461.866 123.38 461.866 123.624C461.866 124.073 462.027 124.449 462.349 124.752C462.681 125.055 463.179 125.206 463.843 125.206ZM486.285 117.765C486.285 117.53 486.206 117.306 486.05 117.091C485.904 116.876 485.684 116.69 485.391 116.534C485.098 116.368 484.737 116.236 484.307 116.139C483.887 116.041 483.409 115.992 482.871 115.992C482.666 115.992 482.447 116.012 482.212 116.051C481.978 116.08 481.758 116.139 481.553 116.227C481.358 116.314 481.192 116.437 481.055 116.593C480.928 116.739 480.865 116.93 480.865 117.164C480.865 117.281 480.879 117.394 480.909 117.501C480.948 117.608 481.016 117.711 481.114 117.809C481.211 117.906 481.343 117.999 481.509 118.087C481.685 118.165 481.91 118.229 482.183 118.277L484.937 118.819C485.933 119.015 486.768 119.259 487.442 119.552C488.116 119.845 488.658 120.187 489.068 120.577C489.478 120.968 489.771 121.402 489.947 121.881C490.132 122.359 490.225 122.877 490.225 123.434C490.225 124.303 490.02 125.064 489.61 125.719C489.209 126.373 488.677 126.92 488.013 127.359C487.359 127.789 486.617 128.111 485.786 128.326C484.966 128.551 484.136 128.663 483.296 128.663C482.749 128.663 482.251 128.629 481.802 128.561C481.363 128.492 480.962 128.399 480.601 128.282C480.249 128.165 479.932 128.028 479.649 127.872C479.375 127.706 479.121 127.525 478.887 127.33H476.236V123.258H480.381V123.346C480.391 123.629 480.479 123.878 480.645 124.093C480.811 124.298 481.026 124.474 481.289 124.62C481.563 124.767 481.87 124.879 482.212 124.957C482.554 125.025 482.915 125.06 483.296 125.06C484.175 125.06 484.815 124.947 485.215 124.723C485.616 124.488 485.816 124.19 485.816 123.829C485.816 123.546 485.718 123.307 485.523 123.111C485.328 122.906 484.981 122.745 484.483 122.628L481.67 122.027C479.903 121.686 478.57 121.119 477.671 120.328C476.773 119.527 476.324 118.502 476.324 117.252C476.324 116.52 476.495 115.855 476.836 115.26C477.178 114.654 477.642 114.142 478.228 113.722C478.814 113.292 479.497 112.96 480.279 112.726C481.07 112.491 481.914 112.374 482.813 112.374C483.428 112.374 483.975 112.413 484.453 112.491C484.932 112.56 485.362 112.652 485.743 112.77C486.123 112.887 486.455 113.028 486.739 113.194C487.032 113.351 487.29 113.517 487.515 113.692H490.064V117.765H486.285ZM498.472 113.121H501.504V116.959H498.443L498.413 123.375C498.413 123.746 498.443 124.049 498.501 124.283C498.56 124.508 498.643 124.688 498.75 124.825C498.868 124.962 499.004 125.055 499.161 125.104C499.317 125.152 499.497 125.177 499.703 125.177C500.074 125.177 500.401 125.143 500.684 125.074C500.967 124.996 501.25 124.908 501.534 124.811L502.163 127.638C501.665 127.95 501.109 128.199 500.494 128.385C499.888 128.57 499.165 128.663 498.326 128.663C497.73 128.663 497.159 128.561 496.612 128.355C496.075 128.15 495.601 127.843 495.191 127.433C494.781 127.013 494.453 126.49 494.209 125.865C493.965 125.24 493.848 124.513 493.858 123.683L493.902 116.959H491.719V113.121H493.916L493.946 109.488L498.501 107.32L498.472 113.121ZM504.463 113.121H511.275V124.283H513.384V128.297H504.463V124.283H506.748V117.135H504.463V113.121ZM506.514 108.229C506.514 107.867 506.578 107.53 506.704 107.218C506.841 106.896 507.027 106.617 507.261 106.383C507.495 106.148 507.769 105.963 508.081 105.826C508.404 105.689 508.75 105.621 509.121 105.621C509.473 105.621 509.805 105.689 510.118 105.826C510.43 105.963 510.703 106.148 510.938 106.383C511.172 106.617 511.358 106.896 511.495 107.218C511.631 107.53 511.7 107.867 511.7 108.229C511.7 108.59 511.631 108.932 511.495 109.254C511.358 109.566 511.172 109.84 510.938 110.074C510.703 110.309 510.43 110.494 510.118 110.631C509.805 110.768 509.473 110.836 509.121 110.836C508.75 110.836 508.404 110.768 508.081 110.631C507.769 110.494 507.495 110.309 507.261 110.074C507.027 109.84 506.841 109.566 506.704 109.254C506.578 108.932 506.514 108.59 506.514 108.229ZM528.516 119.566C528.516 118.717 528.291 118.053 527.842 117.574C527.393 117.086 526.797 116.842 526.055 116.842C525.547 116.842 525.035 116.954 524.517 117.179C523.999 117.403 523.496 117.823 523.008 118.438V124.283H525.469V128.297H516.036V124.283H518.262V117.135H516.065V113.121H522.979V114.454C523.614 113.956 524.322 113.565 525.103 113.282C525.894 112.989 526.724 112.843 527.593 112.843C529.419 112.843 530.826 113.355 531.812 114.381C532.798 115.396 533.291 116.886 533.291 118.849V124.283H535.445V128.297H528.516V119.566ZM546.753 127.477C546.411 127.691 546.099 127.877 545.816 128.033C545.533 128.18 545.249 128.297 544.966 128.385C544.683 128.482 544.39 128.551 544.087 128.59C543.785 128.639 543.453 128.663 543.091 128.663C542.183 128.663 541.368 128.541 540.645 128.297C539.932 128.043 539.327 127.701 538.828 127.271C538.34 126.832 537.964 126.319 537.701 125.733C537.437 125.138 537.305 124.493 537.305 123.8C537.305 123.097 537.437 122.447 537.701 121.852C537.974 121.256 538.365 120.748 538.872 120.328C539.38 119.898 540 119.566 540.733 119.332C541.475 119.088 542.32 118.966 543.267 118.966C543.96 118.966 544.59 119.005 545.157 119.083C545.733 119.151 546.265 119.239 546.753 119.347V118.878C546.753 118.497 546.68 118.17 546.534 117.896C546.387 117.613 546.182 117.384 545.918 117.208C545.655 117.022 545.337 116.891 544.966 116.812C544.595 116.725 544.19 116.681 543.75 116.681C542.832 116.681 542.022 116.773 541.319 116.959C540.625 117.135 539.956 117.394 539.312 117.735L537.906 114.894C538.902 114.21 539.942 113.688 541.026 113.326C542.12 112.965 543.277 112.784 544.497 112.784C545.445 112.784 546.319 112.892 547.12 113.106C547.93 113.312 548.623 113.653 549.2 114.132C549.776 114.601 550.225 115.216 550.547 115.978C550.879 116.739 551.045 117.667 551.045 118.761V124.283H553.081V128.297H546.753V127.477ZM543.413 125.206C544.107 125.206 544.737 125.094 545.303 124.869C545.87 124.645 546.353 124.371 546.753 124.049V122.115H543.238C543.013 122.115 542.793 122.149 542.578 122.218C542.364 122.286 542.168 122.384 541.993 122.511C541.827 122.638 541.69 122.794 541.582 122.979C541.485 123.165 541.436 123.38 541.436 123.624C541.436 124.073 541.597 124.449 541.919 124.752C542.251 125.055 542.749 125.206 543.413 125.206ZM569.942 118.644H565.826V117.076C565.425 117.076 565.059 117.105 564.727 117.164C564.395 117.213 564.102 117.301 563.848 117.428C563.604 117.555 563.394 117.73 563.218 117.955C563.052 118.18 562.935 118.458 562.867 118.79V124.283H565.957V128.297H556.055V124.283H558.326V117.135H556.084V113.121H562.837V114.19C563.267 113.849 563.75 113.585 564.287 113.399C564.825 113.214 565.411 113.121 566.045 113.121C566.69 113.121 567.354 113.126 568.037 113.136C568.721 113.146 569.356 113.15 569.942 113.15V118.644ZM576.372 121.661L576.416 122.115C576.524 122.555 576.704 122.94 576.958 123.272C577.222 123.604 577.53 123.883 577.881 124.107C578.233 124.332 578.623 124.503 579.053 124.62C579.483 124.728 579.917 124.781 580.357 124.781C580.796 124.781 581.211 124.757 581.602 124.708C582.002 124.649 582.388 124.576 582.759 124.488C583.13 124.391 583.492 124.283 583.843 124.166C584.195 124.039 584.551 123.907 584.912 123.771L586.524 126.773C585.967 127.115 585.454 127.408 584.986 127.652C584.527 127.887 584.063 128.082 583.594 128.238C583.125 128.395 582.627 128.507 582.1 128.575C581.573 128.653 580.957 128.692 580.254 128.692C578.936 128.692 577.764 128.478 576.739 128.048C575.713 127.608 574.849 127.018 574.146 126.275C573.453 125.533 572.92 124.664 572.549 123.668C572.188 122.672 572.007 121.617 572.007 120.504C572.007 119.391 572.198 118.346 572.578 117.369C572.969 116.393 573.516 115.543 574.219 114.82C574.922 114.088 575.762 113.512 576.739 113.092C577.715 112.672 578.799 112.462 579.991 112.462C581.182 112.462 582.237 112.662 583.155 113.062C584.082 113.453 584.864 114 585.498 114.703C586.133 115.396 586.621 116.217 586.963 117.164C587.305 118.102 587.491 119.112 587.52 120.196C587.549 120.44 587.564 120.685 587.564 120.929C587.574 121.163 587.569 121.407 587.549 121.661H576.372ZM579.873 116.124C579.327 116.124 578.858 116.192 578.467 116.329C578.086 116.456 577.764 116.637 577.5 116.871C577.237 117.096 577.027 117.354 576.87 117.647C576.714 117.94 576.592 118.248 576.504 118.57H582.847C582.779 118.238 582.681 117.926 582.554 117.633C582.427 117.34 582.251 117.081 582.027 116.856C581.802 116.632 581.514 116.456 581.162 116.329C580.821 116.192 580.391 116.124 579.873 116.124Z" fill="white"/>
</svg>
