<svg width="405" height="283" viewBox="0 0 405 283" fill="none" xmlns="http://www.w3.org/2000/svg">
<path d="M403.593 267H1.4032C1.03068 266.999 0.673778 266.84 0.410747 266.559C0.147715 266.278 0 265.897 0 265.5C0 265.103 0.147715 264.722 0.410747 264.441C0.673778 264.16 1.03068 264.001 1.4032 264H403.593C403.966 264 404.324 264.158 404.588 264.439C404.852 264.721 405 265.102 405 265.5C405 265.898 404.852 266.279 404.588 266.561C404.324 266.842 403.966 267 403.593 267Z" fill="#3F3D56"/>
<path d="M213 98C233.987 98 251 80.0914 251 58C251 35.9086 233.987 18 213 18C192.013 18 175 35.9086 175 58C175 80.0914 192.013 98 213 98Z" fill="#2F2E41"/>
<path d="M214.5 100C230.792 100 244 87.0163 244 71C244 54.9838 230.792 42 214.5 42C198.208 42 185 54.9838 185 71C185 87.0163 198.208 100 214.5 100Z" fill="#A0616A"/>
<path d="M259 114.554C259 114.554 206.095 105.169 172 116.901L181.993 196.094L179.642 209L250.182 206.654L245.48 193.748L259 114.554Z" fill="#A0616A"/>
<path d="M221.727 198C209.174 197.855 196.637 197.087 184.165 195.699C181.604 195.427 179.241 194.236 177.545 192.361C175.848 190.486 174.941 188.064 175.003 185.574L175.888 148.6L175.991 148.455C186.526 133.705 181.394 122.932 177.447 117.132C176.613 115.907 176.17 114.472 176.172 113.006C175.566 112.192 175.429 113.481 175.806 112.562C175.992 112.106 176.293 111.703 176.682 111.388C177.07 111.074 177.534 110.858 178.031 110.761L184.046 109.599C184.768 109.459 185.517 109.578 186.155 109.934C186.792 110.29 187.274 110.859 187.509 111.533C189.53 117.362 197.408 136.119 215.459 136.115C230.538 136.111 236.165 115.487 236.503 110.721C236.558 109.983 236.9 109.292 237.46 108.787C238.02 108.283 238.757 108.002 239.523 108.001H247.036C247.512 107.99 247.984 108.083 248.417 108.272C248.851 108.462 249.234 108.743 249.54 109.095C249.914 109.543 250.142 110.089 250.195 110.663C250.247 111.237 250.122 111.813 249.836 112.318C241.261 127.556 253.792 151.667 253.92 151.909L254 152.061L250.465 187.542C250.251 189.624 249.367 191.588 247.938 193.159C246.509 194.73 244.606 195.828 242.498 196.299C237.031 197.542 229.643 198 221.727 198Z" fill="#FDD835"/>
<path d="M153.636 283C145.692 283.001 138.418 282.128 132.641 280.066C125.773 277.616 121.459 273.653 119.821 268.285C119.047 266.002 118.816 263.571 119.146 261.183C119.475 258.796 120.357 256.517 121.72 254.527C131.881 239.358 167.141 235.083 171.872 234.574L174.378 213.751C174.675 211.348 175.832 209.132 177.636 207.511C179.44 205.89 181.77 204.973 184.199 204.927L243.582 204.003C245.967 203.947 248.292 204.746 250.135 206.255C251.979 207.765 253.217 209.884 253.625 212.227L257 230.732L218.061 249.555L223.949 265.991L223.565 266.247C212.167 273.823 179.394 282.999 153.636 283Z" fill="#2F2E41"/>
<path d="M251.826 227.783C251.826 227.783 305.326 220.739 301.836 248.913C298.347 277.086 257.641 297.042 196 248.913L202.978 234.826C202.978 234.826 237.869 244.217 251.826 237.174V227.783Z" fill="#2F2E41"/>
<path d="M204 238.232C204 238.232 204 223.874 192.048 225.071C180.096 226.267 158.582 227.464 158.582 227.464C158.582 227.464 151.41 232.25 160.972 234.642C170.534 237.035 199.219 249 199.219 249L204 238.232Z" fill="#A0616A"/>
<path d="M222 235.232C222 235.232 222 220.874 233.952 222.071C245.904 223.267 267.418 224.464 267.418 224.464C267.418 224.464 274.59 229.25 265.028 231.642C255.466 234.035 226.781 246 226.781 246L222 235.232Z" fill="#A0616A"/>
<path d="M295.306 233.738L277.4 172.896C277.4 172.896 273.8 151.724 270.2 131.729C266.6 111.733 253.4 114.085 253.4 114.085L251 115.262V147.019L253.4 176.425L277.358 241.004C276.653 243.243 276.612 245.634 277.24 247.895C277.869 250.157 279.141 252.196 280.908 253.775C282.675 255.355 284.864 256.409 287.219 256.814C289.575 257.219 291.999 256.959 294.209 256.065C296.42 255.17 298.324 253.677 299.701 251.761C301.078 249.844 301.87 247.583 301.985 245.242C302.1 242.901 301.533 240.576 300.351 238.539C299.168 236.502 297.418 234.837 295.306 233.738Z" fill="#A0616A"/>
<path d="M174.647 116.085C174.647 116.085 161.703 113.733 158.173 133.731C154.642 153.728 151.112 174.903 151.112 174.903L133.554 235.751C131.485 236.851 129.772 238.516 128.614 240.552C127.456 242.588 126.901 244.912 127.014 247.251C127.128 249.591 127.905 251.85 129.254 253.765C130.604 255.679 132.47 257.171 134.636 258.065C136.801 258.959 139.176 259.219 141.484 258.814C143.792 258.41 145.937 257.357 147.669 255.779C149.401 254.202 150.648 252.164 151.265 249.905C151.882 247.645 151.843 245.257 151.153 243.018L174.647 178.432L177 149.023V119.892C177 119.102 176.78 118.327 176.364 117.655C175.948 116.982 175.354 116.439 174.647 116.085Z" fill="#A0616A"/>
<path d="M185 53.6233C196.625 60.5835 209.731 64.8189 223.297 66L219.261 61.2558C222.2 62.3217 225.293 62.9241 228.424 63.0406C229.992 63.0851 231.549 62.7687 232.97 62.1165C234.39 61.4644 235.635 60.4947 236.605 59.2853C237.396 58.0294 237.867 56.6043 237.976 55.1316C238.084 53.6589 237.828 52.1823 237.229 50.8276C235.999 48.1256 234.084 45.7773 231.667 44.0062C227.383 40.6821 222.327 38.4492 216.949 37.5066C211.571 36.564 206.039 36.9408 200.846 38.6037C197.284 39.6478 194.094 41.655 191.641 44.3953C190.435 45.7756 189.597 47.4281 189.203 49.2042C188.809 50.9804 188.871 52.8247 189.383 54.5716" fill="#2F2E41"/>
<path d="M217 24.1477C207.791 15.0603 196.646 8.0477 184.351 3.60361C176.459 0.758502 167.869 -0.999395 159.618 0.616381C151.367 2.23216 143.564 7.7864 141.262 15.664C139.38 22.1056 141.324 29.0412 144.245 35.105C147.166 41.1688 151.066 46.7917 153.428 53.0818C155.838 59.4998 156.563 66.4021 155.537 73.1619C154.51 79.9217 151.765 86.325 147.55 91.7906C143.336 97.2561 137.785 101.611 131.402 104.46C125.019 107.308 118.006 108.561 111 108.103C119.107 109.161 126.58 112.868 134.504 114.841C142.428 116.814 151.781 116.68 157.669 111.156C163.9 105.312 164.025 95.8086 163.723 87.3924C163.276 74.8814 162.828 62.3705 162.38 49.8594C162.152 43.4791 161.957 36.8942 164.321 30.939C166.686 24.9839 172.306 19.7692 178.866 19.8234C183.838 19.8644 188.239 22.7955 192.227 25.6861C196.214 28.5767 200.435 31.6607 205.388 32.0907C210.341 32.5207 215.996 28.954 215.625 24.1289" fill="#2F2E41"/>
</svg>
