<svg width="365" height="365" viewBox="0 0 365 365" fill="none" xmlns="http://www.w3.org/2000/svg">
<rect width="365" height="365" rx="182.5" fill="#D8E5D4"/>
<path opacity="0.3" d="M342.581 216.606C342.581 207.598 336.963 200.295 330.033 200.295C325.677 200.295 321.841 203.181 319.591 207.561C318.819 207.302 318.009 207.17 317.193 207.17C315.085 207.205 313.071 208.049 311.575 209.524C309.547 204.063 305.246 200.295 300.268 200.295C295.614 200.295 291.554 203.591 289.388 208.484C288.118 207.637 286.624 207.18 285.094 207.17C279.775 207.17 275.464 212.774 275.464 219.688C275.448 222.02 275.967 224.325 276.981 226.428H340.051C341.742 223.429 342.614 220.043 342.581 216.606Z" fill="#FDD835"/>
<path d="M309 274H46V275H308.736L309 274Z" fill="#2F2E41"/>
<path d="M351 227H13V230H350.661L351 227Z" fill="#2F2E41"/>
<path d="M145.353 156.287C145.353 156.287 147.791 138.533 151.855 143.375C155.919 148.217 151.855 155.48 151.855 155.48L148.604 159.515L145.353 157.094V156.287Z" fill="#FFB8B8"/>
<path d="M135.598 161.937C135.598 161.937 143.727 153.059 145.352 154.673C146.978 156.287 151.855 157.094 151.042 160.322C150.229 163.551 133.16 174.042 133.16 174.042L135.598 161.937Z" fill="#FDD835"/>
<path opacity="0.1" d="M135.598 161.937C135.598 161.937 143.727 153.059 145.352 154.673C146.978 156.287 151.855 157.094 151.042 160.322C150.229 163.551 133.16 174.042 133.16 174.042L135.598 161.937Z" fill="black"/>
<path d="M89.2666 161.13V167.586C89.2666 167.586 88.4538 182.112 93.3308 181.305C98.2079 180.498 95.7694 168.393 95.7694 168.393L94.9565 161.13H89.2666Z" fill="#FFB8B8"/>
<path d="M91.7046 207.936C91.7046 207.936 84.3891 219.234 81.9505 220.041C79.512 220.848 66.5065 228.111 64.8808 235.374L53.501 249.9L59.1909 257.164C59.1909 257.164 85.2019 229.725 92.5175 227.304C99.8331 224.883 107.149 212.778 107.149 212.778L91.7046 207.936Z" fill="#FFB8B8"/>
<path d="M149.417 189.375C149.417 189.375 164.861 191.796 162.422 201.48C159.984 211.164 136.411 231.339 136.411 231.339L135.598 236.181L126.657 237.795L122.593 233.76L123.406 231.339C123.406 231.339 133.16 222.462 133.973 219.234C134.785 216.006 143.727 203.094 147.791 202.287L142.101 199.059L149.417 189.375Z" fill="#FFB8B8"/>
<path d="M55.9397 249.9C55.9397 249.9 59.1911 245.058 54.314 245.865C49.4369 246.672 46.1855 247.479 46.1855 250.707C46.1855 253.935 50.2498 276.532 55.1268 274.918C60.0039 273.304 55.9397 266.041 55.9397 266.041C55.9397 266.041 58.3782 259.585 60.0039 258.778C61.6296 257.97 61.6296 253.935 60.0039 253.935C58.3782 253.935 55.1268 251.514 55.9397 249.9Z" fill="#2F2E41"/>
<path d="M125.031 232.146C125.031 232.146 125.031 228.111 121.78 232.146C118.528 236.181 116.903 239.409 120.154 241.83C123.405 244.251 134.785 249.9 134.785 249.9C134.785 249.9 146.978 252.321 145.352 246.672C145.352 246.672 137.224 242.637 137.224 239.409C137.224 236.181 137.224 230.532 134.785 232.146C132.347 233.76 125.031 234.567 125.031 232.146Z" fill="#2F2E41"/>
<path d="M109.587 171.621C109.587 171.621 98.2076 173.235 99.0204 189.375C99.0204 189.375 84.3892 203.901 88.4535 208.743C92.5177 213.585 101.459 222.462 104.71 220.041C107.962 217.62 117.716 199.059 117.716 199.059C117.716 199.059 140.475 207.129 144.54 203.094C148.604 199.059 152.668 189.375 152.668 189.375L132.347 178.884L109.587 171.621Z" fill="#2F2E41"/>
<path d="M141.289 125.621C146.676 125.621 151.043 121.285 151.043 115.937C151.043 110.589 146.676 106.253 141.289 106.253C135.902 106.253 131.535 110.589 131.535 115.937C131.535 121.285 135.902 125.621 141.289 125.621Z" fill="#FFB8B8"/>
<path d="M133.973 116.744C133.973 116.744 128.283 125.621 126.657 126.428C125.032 127.235 138.037 135.305 138.037 135.305C138.037 135.305 138.037 124.814 142.101 122.393L133.973 116.744Z" fill="#FFB8B8"/>
<path d="M133.16 125.621C133.16 125.621 120.154 121.586 117.716 128.042C115.277 134.498 109.587 146.603 110.4 154.673C111.213 162.743 112.839 161.129 110.4 163.55C107.962 165.972 106.336 164.357 107.149 167.586C107.962 170.814 108.775 170.814 107.962 172.428C107.149 174.042 117.716 179.691 126.657 180.498L135.599 181.305C135.599 181.305 135.598 166.779 137.224 163.55C138.85 160.322 142.101 153.866 142.101 151.445V145.04C142.101 140.776 140.981 136.586 138.85 132.884C138.85 132.884 133.973 125.621 133.16 125.621Z" fill="#FDD835"/>
<path d="M123.406 128.849C123.406 128.849 93.3305 131.27 90.0791 139.34C86.8277 147.411 85.2021 163.551 88.4534 163.551C91.7048 163.551 95.769 165.165 96.5819 163.551C97.3947 161.937 100.646 145.797 101.459 145.797C102.272 145.797 126.657 143.376 126.657 143.376C126.657 143.376 137.224 130.463 123.406 128.849Z" fill="#FDD835"/>
<path d="M141.68 113.536C141.68 113.536 144.269 109.07 147.504 112.949C150.74 116.828 156.003 109.7 155.195 108.179C154.387 106.658 151.534 108.247 146.644 106.66C141.754 105.073 132.334 101.84 130.756 112.387C129.179 122.934 132.936 121.828 132.936 121.828C132.936 121.828 134.658 112.482 136.215 115.167L137.771 117.851L139.122 118.181L141.68 113.536Z" fill="#2F2E41"/>
<path d="M233.684 88.8242C240.256 88.8242 245.584 83.5344 245.584 77.0092C245.584 70.4839 240.256 65.1941 233.684 65.1941C227.111 65.1941 221.783 70.4839 221.783 77.0092C221.783 83.5344 227.111 88.8242 233.684 88.8242Z" fill="#2F2E41"/>
<path d="M229.88 85.7544C229.88 85.7544 230.496 96.7597 229.264 96.7597C228.032 96.7597 236.962 101.957 236.962 101.957L242.504 98.8997V95.2313C242.504 95.2313 235.114 94.3141 238.194 86.3658C241.273 78.4176 229.88 85.7544 229.88 85.7544Z" fill="#9F616A"/>
<path d="M204.015 206.507L203.091 215.678L206.17 216.595L208.633 214.15L209.557 206.507H204.015Z" fill="#9F616A"/>
<path d="M248.354 211.704L249.894 217.512L254.205 220.264L258.824 217.818L253.589 209.258L248.354 211.704Z" fill="#9F616A"/>
<path d="M232.805 90.4928C237.737 90.4928 241.735 86.5236 241.735 81.6274C241.735 76.7311 237.737 72.762 232.805 72.762C227.873 72.762 223.875 76.7311 223.875 81.6274C223.875 86.5236 227.873 90.4928 232.805 90.4928Z" fill="#9F616A"/>
<path d="M227.416 114.796L225.261 113.879C225.261 113.879 221.566 111.739 221.258 107.459C220.95 103.179 224.337 97.6767 224.337 97.6767L229.264 96.1482L235.052 100.826L235.114 108.376L227.416 114.796Z" fill="#9F616A"/>
<path d="M225.261 98.2883L224.029 97.6769C224.029 97.6769 217.871 97.3712 217.255 104.708C216.639 112.045 214.484 124.273 214.484 124.273C214.484 124.273 209.557 132.833 209.865 142.004L207.402 149.952C207.402 149.952 204.015 161.569 208.018 161.569C212.02 161.569 211.713 149.035 211.713 149.035C211.713 149.035 219.102 131.304 219.718 128.247C220.334 125.19 225.569 110.822 224.029 106.848C222.49 102.874 225.261 98.2883 225.261 98.2883Z" fill="#9F616A"/>
<path d="M229.88 117.547V120.91C229.88 120.91 232.035 123.356 231.111 124.884C230.187 126.413 229.264 129.47 229.264 129.47L233.574 136.195L248.046 137.418L250.924 118.275L229.88 117.547Z" fill="#9F616A"/>
<path d="M243.428 96.1482L245.891 94.9254C245.891 94.9254 251.126 91.2569 255.436 90.6455L268.677 81.7801L277.298 61.298C277.298 61.298 276.99 50.2927 279.454 51.5155C281.917 52.7383 281.609 62.2151 281.609 62.2151C281.609 62.2151 276.99 81.1687 272.987 86.3657C268.985 91.5626 254.513 100.122 254.513 100.122C254.513 100.122 250.51 104.708 250.818 106.848C251.126 108.988 243.428 96.1482 243.428 96.1482Z" fill="#9F616A"/>
<path d="M232.035 129.47C232.035 129.47 228.648 127.33 226.493 130.998C224.337 134.667 220.335 135.584 217.871 146.589C215.408 157.595 209.558 175.02 208.018 176.242C206.478 177.465 200.012 190.305 203.707 208.341H209.865L215.1 182.356C215.1 182.356 232.035 161.569 233.267 153.009L238.809 185.108C238.809 185.108 239.117 197.336 243.736 203.144L248.663 214.761L255.129 211.704L247.739 182.356C247.739 182.356 251.434 152.703 248.971 144.449L248.617 133.628C248.617 133.628 238.501 134.055 232.035 129.47Z" fill="#2F2E41"/>
<path d="M206.17 214.15H202.476C201.86 214.15 196.933 218.124 199.088 220.264C201.244 222.404 204.631 226.378 204.631 226.378C204.631 226.378 216.64 227.894 216.947 225.754C217.255 223.614 211.713 219.041 211.713 219.041L210.173 214.15C210.173 214.15 207.094 210.787 206.17 214.15Z" fill="#2F2E41"/>
<path d="M255.129 217.207C255.129 217.207 249.894 216.901 248.97 216.595C248.047 216.29 246.199 224.544 248.97 225.155C251.742 225.766 263.134 226.683 263.134 226.683C263.134 226.683 272.064 226.378 271.448 223.932C270.832 221.487 258.824 216.595 258.824 216.595C258.824 216.595 257.284 213.538 255.129 217.207Z" fill="#2F2E41"/>
<path d="M230.803 95.8425L229.264 94.9254L227.416 96.4539C227.416 96.4539 232.959 100.122 231.727 103.485C230.495 106.848 225.261 113.879 225.261 113.879C225.261 113.879 229.879 119.076 229.879 120.91C229.879 120.91 241.888 116.63 250.818 120.91C250.818 120.91 250.818 114.796 252.049 113.573C253.281 112.351 253.897 108.071 250.818 104.402C248.648 101.703 246.692 98.8411 244.967 95.8425L241.888 94.0083L240.302 94.5077C240.302 94.5077 243.428 97.9824 240.349 98.2882C237.269 98.5939 232.343 97.6767 230.803 95.8425Z" fill="#FDD835"/>
<path d="M242.381 56.8655C241.335 58.0248 239.902 58.77 238.347 58.9638C235.657 59.3453 237.77 63.5419 237.77 63.5419C237.77 63.5419 237.002 62.0159 238.539 60.6806C240.076 59.3453 242.381 58.5823 242.381 56.8655Z" fill="#2F2E41"/>
<path d="M237.195 67.7122C239.027 67.7122 240.512 66.2379 240.512 64.4194C240.512 62.6009 239.027 61.1267 237.195 61.1267C235.364 61.1267 233.879 62.6009 233.879 64.4194C233.879 66.2379 235.364 67.7122 237.195 67.7122Z" fill="#2F2E41"/>
<path d="M241.067 67.6616C238.505 66.333 234.097 65.2879 231.755 65.3626L232.348 63.114C234.421 64.5125 238.806 65.577 241.66 65.413L241.067 67.6616Z" fill="#FDD835"/>
<path d="M235.774 67.8594C235.774 67.8594 231.737 73.0132 223.662 74.1584C215.587 75.3037 221.931 87.9018 221.931 87.9018C221.931 87.9018 219.624 83.3207 224.239 79.3122C228.853 75.3037 235.774 73.0131 235.774 67.8594Z" fill="#2F2E41"/>
<path d="M236.082 67.5537C236.082 67.5537 238.389 75.5707 241.85 76.716C245.31 77.8613 243.58 89.8867 237.812 91.032C237.812 91.032 242.715 84.4466 239.831 79.2929C236.947 74.1391 235.217 70.1306 236.082 67.5537Z" fill="#2F2E41"/>
<path d="M290.385 54.114H269.139V56.5596H290.385V54.114Z" fill="#2F2E41"/>
<path d="M290.385 62.6738C291.405 62.6738 292.233 59.3889 292.233 55.3369C292.233 51.2848 291.405 48 290.385 48C289.365 48 288.538 51.2848 288.538 55.3369C288.538 59.3889 289.365 62.6738 290.385 62.6738Z" fill="#2F2E41"/>
<path d="M269.139 62.6738C270.159 62.6738 270.986 59.3889 270.986 55.3369C270.986 51.2848 270.159 48 269.139 48C268.118 48 267.291 51.2848 267.291 55.3369C267.291 59.3889 268.118 62.6738 269.139 62.6738Z" fill="#2F2E41"/>
<path d="M301.162 218.588H279.916V221.034H301.162V218.588Z" fill="#2F2E41"/>
<path d="M301.162 227.148C302.182 227.148 303.009 223.863 303.009 219.811C303.009 215.759 302.182 212.474 301.162 212.474C300.142 212.474 299.314 215.759 299.314 219.811C299.314 223.863 300.142 227.148 301.162 227.148Z" fill="#2F2E41"/>
<path d="M279.916 227.148C280.936 227.148 281.763 223.863 281.763 219.811C281.763 215.759 280.936 212.474 279.916 212.474C278.896 212.474 278.068 215.759 278.068 219.811C278.068 223.863 278.896 227.148 279.916 227.148Z" fill="#2F2E41"/>
</svg>
