<svg width="406" height="400" viewBox="0 0 406 400" fill="none" xmlns="http://www.w3.org/2000/svg">
<path d="M6 200C6 89.5431 95.5431 0 206 0C316.457 0 406 89.5431 406 200C406 310.457 316.457 400 206 400C95.5431 400 6 310.457 6 200Z" fill="white"/>
<path d="M403.593 362H1.4032C1.03068 361.999 0.673778 361.84 0.410747 361.559C0.147715 361.278 0 360.897 0 360.5C0 360.103 0.147715 359.722 0.410747 359.441C0.673778 359.16 1.03068 359.001 1.4032 359H403.593C403.966 359 404.324 359.158 404.588 359.439C404.852 359.721 405 360.102 405 360.5C405 360.898 404.852 361.279 404.588 361.561C404.324 361.842 403.966 362 403.593 362Z" fill="#3F3D56"/>
<path d="M213 193C233.987 193 251 175.091 251 153C251 130.909 233.987 113 213 113C192.013 113 175 130.909 175 153C175 175.091 192.013 193 213 193Z" fill="#2F2E41"/>
<path d="M214.5 195C230.792 195 244 182.016 244 166C244 149.984 230.792 137 214.5 137C198.208 137 185 149.984 185 166C185 182.016 198.208 195 214.5 195Z" fill="#A0616A"/>
<path d="M259 209.554C259 209.554 206.095 200.169 172 211.901L181.993 291.094L179.642 304L250.182 301.654L245.48 288.748L259 209.554Z" fill="#A0616A"/>
<path d="M221.727 293C209.174 292.855 196.637 292.087 184.165 290.699C181.604 290.427 179.241 289.236 177.545 287.361C175.848 285.486 174.941 283.064 175.003 280.574L175.888 243.6L175.991 243.455C186.526 228.705 181.394 217.932 177.447 212.132C176.613 210.907 176.17 209.472 176.172 208.006C175.566 207.192 175.429 208.481 175.806 207.562C175.992 207.106 176.293 206.703 176.682 206.388C177.07 206.074 177.534 205.858 178.031 205.761L184.046 204.599C184.768 204.459 185.517 204.578 186.155 204.934C186.792 205.29 187.274 205.859 187.509 206.533C189.53 212.362 197.408 231.119 215.459 231.115C230.538 231.111 236.165 210.487 236.503 205.721C236.558 204.983 236.9 204.292 237.46 203.787C238.02 203.283 238.757 203.002 239.523 203.001H247.036C247.512 202.99 247.984 203.083 248.417 203.272C248.851 203.462 249.234 203.743 249.54 204.095C249.914 204.543 250.142 205.089 250.195 205.663C250.247 206.237 250.122 206.813 249.836 207.318C241.261 222.556 253.792 246.667 253.92 246.909L254 247.061L250.465 282.542C250.251 284.624 249.367 286.588 247.938 288.159C246.509 289.73 244.606 290.828 242.498 291.299C237.031 292.542 229.643 293 221.727 293Z" fill="#FDD835"/>
<path d="M153.636 378C145.692 378.001 138.418 377.128 132.641 375.066C125.773 372.616 121.459 368.653 119.821 363.285C119.047 361.002 118.816 358.571 119.146 356.183C119.475 353.796 120.357 351.517 121.72 349.527C131.881 334.358 167.141 330.083 171.872 329.574L174.378 308.751C174.675 306.348 175.832 304.132 177.636 302.511C179.44 300.89 181.77 299.973 184.199 299.927L243.582 299.003C245.967 298.947 248.292 299.746 250.135 301.255C251.979 302.765 253.217 304.884 253.625 307.227L257 325.732L218.061 344.555L223.949 360.991L223.565 361.247C212.167 368.823 179.394 377.999 153.636 378Z" fill="#2F2E41"/>
<path d="M251.826 322.783C251.826 322.783 305.326 315.739 301.836 343.913C298.347 372.086 257.641 392.042 196 343.913L202.978 329.826C202.978 329.826 237.869 339.217 251.826 332.174V322.783Z" fill="#2F2E41"/>
<path d="M204 333.232C204 333.232 204 318.874 192.048 320.071C180.096 321.267 158.582 322.464 158.582 322.464C158.582 322.464 151.41 327.25 160.972 329.642C170.534 332.035 199.219 344 199.219 344L204 333.232Z" fill="#A0616A"/>
<path d="M222 330.232C222 330.232 222 315.874 233.952 317.071C245.904 318.267 267.418 319.464 267.418 319.464C267.418 319.464 274.59 324.25 265.028 326.642C255.466 329.035 226.781 341 226.781 341L222 330.232Z" fill="#A0616A"/>
<path d="M295.306 328.738L277.4 267.896C277.4 267.896 273.8 246.724 270.2 226.729C266.6 206.733 253.4 209.085 253.4 209.085L251 210.262V242.019L253.4 271.425L277.358 336.004C276.653 338.243 276.612 340.634 277.24 342.895C277.869 345.157 279.141 347.196 280.908 348.775C282.675 350.355 284.864 351.409 287.219 351.814C289.575 352.219 291.999 351.959 294.209 351.065C296.42 350.17 298.324 348.677 299.701 346.761C301.078 344.844 301.87 342.583 301.985 340.242C302.1 337.901 301.533 335.576 300.351 333.539C299.168 331.502 297.418 329.837 295.306 328.738Z" fill="#A0616A"/>
<path d="M174.647 211.085C174.647 211.085 161.703 208.733 158.173 228.731C154.642 248.728 151.112 269.903 151.112 269.903L133.554 330.751C131.485 331.851 129.772 333.516 128.614 335.552C127.456 337.588 126.901 339.912 127.014 342.251C127.128 344.591 127.905 346.85 129.254 348.765C130.604 350.679 132.47 352.171 134.636 353.065C136.801 353.959 139.176 354.219 141.484 353.814C143.792 353.41 145.937 352.357 147.669 350.779C149.401 349.202 150.648 347.164 151.265 344.905C151.882 342.645 151.843 340.257 151.153 338.018L174.647 273.432L177 244.023V214.892C177 214.102 176.78 213.327 176.364 212.655C175.948 211.982 175.354 211.439 174.647 211.085Z" fill="#A0616A"/>
<path d="M185 148.623C196.625 155.583 209.731 159.819 223.297 161L219.261 156.256C222.2 157.322 225.293 157.924 228.424 158.041C229.992 158.085 231.549 157.769 232.97 157.117C234.39 156.464 235.635 155.495 236.605 154.285C237.396 153.029 237.867 151.604 237.976 150.132C238.084 148.659 237.828 147.182 237.229 145.828C235.999 143.126 234.084 140.777 231.667 139.006C227.383 135.682 222.327 133.449 216.949 132.507C211.571 131.564 206.039 131.941 200.846 133.604C197.284 134.648 194.094 136.655 191.641 139.395C190.435 140.776 189.597 142.428 189.203 144.204C188.809 145.98 188.871 147.825 189.383 149.572" fill="#2F2E41"/>
<path d="M217 119.148C207.791 110.06 196.646 103.048 184.351 98.6036C176.459 95.7585 167.869 94.0006 159.618 95.6164C151.367 97.2322 143.564 102.786 141.262 110.664C139.38 117.106 141.324 124.041 144.245 130.105C147.166 136.169 151.066 141.792 153.428 148.082C155.838 154.5 156.563 161.402 155.537 168.162C154.51 174.922 151.765 181.325 147.55 186.791C143.336 192.256 137.785 196.611 131.402 199.46C125.019 202.308 118.006 203.561 111 203.103C119.107 204.161 126.58 207.868 134.504 209.841C142.428 211.814 151.781 211.68 157.669 206.156C163.9 200.312 164.025 190.809 163.723 182.392C163.276 169.881 162.828 157.37 162.38 144.859C162.152 138.479 161.957 131.894 164.321 125.939C166.686 119.984 172.306 114.769 178.866 114.823C183.838 114.864 188.239 117.796 192.227 120.686C196.214 123.577 200.435 126.661 205.388 127.091C210.341 127.521 215.996 123.954 215.625 119.129" fill="#2F2E41"/>
</svg>
