<svg width="500" height="536" viewBox="0 0 500 536" fill="none" xmlns="http://www.w3.org/2000/svg">
<rect width="500" height="500" rx="250" fill="url(#paint0_radial)"/>
<path d="M218.333 191.565C233.842 191.565 246.415 178.992 246.415 163.483C246.415 147.974 233.842 135.401 218.333 135.401C202.824 135.401 190.251 147.974 190.251 163.483C190.251 178.992 202.824 191.565 218.333 191.565Z" fill="#2F2E41"/>
<path d="M309.398 524.099L297.138 524.098L291.305 476.81L309.4 476.811L309.398 524.099Z" fill="#FFB8B8"/>
<path d="M288.381 520.595H312.025V535.482H273.494C273.494 533.527 273.879 531.591 274.627 529.785C275.375 527.979 276.472 526.338 277.854 524.955C279.237 523.573 280.878 522.476 282.684 521.728C284.49 520.98 286.426 520.595 288.381 520.595V520.595Z" fill="#2F2E41"/>
<path d="M184.336 522.494L172.5 519.302L179.177 472.126L196.647 476.837L184.336 522.494Z" fill="#FFB8B8"/>
<path d="M164.956 513.641L187.785 519.796L183.909 534.169L146.707 524.139C147.735 520.327 150.235 517.079 153.657 515.11C157.08 513.141 161.144 512.613 164.956 513.641Z" fill="#2F2E41"/>
<path d="M207.569 305.296L171.062 512.165L189.784 515.909L248.755 369.884L292.75 514.973L315.215 512.165C315.215 512.165 304.919 304.36 272.157 286.575L207.569 305.296Z" fill="#2F2E41"/>
<path d="M149.673 379.299C150.989 378.644 152.146 377.709 153.061 376.558C153.977 375.408 154.629 374.071 154.972 372.642C155.314 371.212 155.34 369.725 155.045 368.284C154.751 366.844 154.145 365.486 153.269 364.305L173.402 334.782L154.835 334.494L138.562 362.574C136.677 364.176 135.444 366.416 135.099 368.866C134.754 371.317 135.319 373.81 136.689 375.871C138.058 377.933 140.137 379.421 142.53 380.052C144.923 380.684 147.464 380.416 149.673 379.299V379.299Z" fill="#FFB8B8"/>
<path d="M282.593 342.793C283.909 342.138 285.066 341.202 285.981 340.052C286.897 338.902 287.549 337.565 287.892 336.135C288.234 334.706 288.26 333.218 287.965 331.778C287.671 330.338 287.065 328.979 286.189 327.799L306.322 298.275L287.755 297.987L271.482 326.067C269.597 327.67 268.364 329.909 268.019 332.36C267.674 334.811 268.239 337.303 269.609 339.365C270.978 341.427 273.056 342.914 275.45 343.546C277.843 344.178 280.384 343.91 282.593 342.793V342.793Z" fill="#FFB8B8"/>
<path d="M219.048 197.125C232.613 197.125 243.609 186.128 243.609 172.564C243.609 158.999 232.613 148.003 219.048 148.003C205.484 148.003 194.487 158.999 194.487 172.564C194.487 186.128 205.484 197.125 219.048 197.125Z" fill="#FFB8B8"/>
<path d="M272.157 210.754C271.221 207.01 255.308 207.946 255.308 207.946C255.308 207.946 237.389 203.826 237.559 204.342C222.459 203.179 204.039 208.848 201.356 209.708C195.868 211.222 185.381 215.854 177.819 219.261C176.766 219.735 175.943 220.606 175.529 221.684C175.115 222.762 175.143 223.959 175.608 225.017L198.676 277.682L201.952 311.848L277.773 288.447C259.052 280.958 273.093 214.498 272.157 210.754Z" fill="#FDD835"/>
<path d="M265.604 211.69L271.827 210.127L305.854 277.214L307.726 315.593L286.197 298.744V283.767L263.732 254.749L265.604 211.69Z" fill="#FDD835"/>
<path d="M183.699 216.839L176.493 220.041C176.118 220.208 175.79 220.464 175.537 220.788C175.284 221.111 175.115 221.492 175.044 221.897L160.766 303.424L146.725 344.61L165.446 353.971L186.975 302.488L194.464 265.045L183.699 216.839Z" fill="#FDD835"/>
<path d="M193.291 160.985C198.276 159.349 203.535 161.915 208.404 163.868C213.204 165.793 218.331 167.181 223.493 166.877C228.655 166.574 233.876 164.394 236.997 160.271C240.118 156.148 240.667 149.969 237.578 145.822C235.544 143.092 232.299 141.535 229.05 140.52C222.107 138.353 214.336 138.279 207.737 141.336C201.137 144.393 195.962 150.851 195.418 158.104" fill="#2F2E41"/>
<path d="M217.585 141.421C215.911 130.085 222.12 118.315 230.596 114.093C239.071 109.871 249.013 112.362 256.648 118.649C264.283 124.937 269.849 134.598 273.991 144.869C278.133 155.14 281.002 166.14 284.377 176.852C287.375 186.365 290.893 195.884 296.586 203.159C302.28 210.435 310.559 215.169 318.492 213.17C311.974 221.933 299.985 220.416 292.546 212.921C285.108 205.426 281.241 193.711 278.198 182.307C275.154 170.904 272.505 158.972 266.617 149.522C256.142 132.711 235.586 127.66 220.906 138.291" fill="#2F2E41"/>
<defs>
<radialGradient id="paint0_radial" cx="0" cy="0" r="1" gradientUnits="userSpaceOnUse" gradientTransform="translate(250 -171.429) rotate(90) scale(894.444)">
<stop offset="0.145833" stop-color="#006064" stop-opacity="0.5"/>
<stop offset="0.953125" stop-color="#FFF8E1" stop-opacity="0.765957"/>
</radialGradient>
</defs>
</svg>
