<svg width="365" height="365" viewBox="0 0 365 365" fill="none" xmlns="http://www.w3.org/2000/svg">
<rect width="365" height="365" rx="182.5" fill="#D8E5D4"/>
<path opacity="0.1" d="M183.267 145.458C168.54 144.937 154.514 140.202 141.129 135.031C127.745 129.861 114.469 124.108 100.095 121.363C90.8497 119.597 80.2755 119.347 72.8278 124.284C65.6577 129.045 63.3412 137.239 62.0966 144.851C61.159 150.577 60.6084 156.602 63.1751 161.963C64.9591 165.685 68.1221 168.813 70.3111 172.378C77.9272 184.782 72.5434 200.078 64.2924 212.19C60.4241 217.872 55.93 223.297 52.9422 229.34C49.9545 235.383 48.5733 242.317 51.1878 248.487C53.7773 254.608 59.9508 259.196 66.6384 262.426C80.2209 268.986 96.2199 270.865 111.832 271.928C146.381 274.283 181.112 273.263 215.752 272.243C228.572 271.865 241.447 271.481 254.057 269.507C261.061 268.41 268.291 266.669 273.376 262.469C279.83 257.135 281.429 248.102 277.104 241.415C269.849 230.197 249.798 227.411 244.721 215.37C241.931 208.744 244.796 201.361 248.853 195.216C257.555 182.033 272.138 170.465 272.905 155.394C273.433 145.043 266.422 134.678 255.582 129.779C244.22 124.645 228.463 125.291 220.084 133.789C211.442 142.53 196.271 145.896 183.267 145.458Z" fill="#9DBEB2"/>
<path d="M163.526 240.038C163.725 242.602 164.714 245.255 166.796 246.767C168.878 248.279 172.191 248.25 173.781 246.219C174.315 245.456 174.708 244.604 174.941 243.704C176.281 239.481 177.232 234.86 175.764 230.679C172.451 230.464 168.612 228.91 166.125 231.64C164.117 233.864 163.294 237.074 163.526 240.038Z" fill="#3F3D56"/>
<path d="M178.902 214.203C178.462 217.929 177.714 221.64 177.791 225.392C177.82 226.84 177.974 228.276 177.977 229.73C177.983 233.508 176.985 237.219 175.086 240.487C174.886 240.871 174.618 241.216 174.295 241.506C173.534 242.121 172.387 242.07 171.532 241.599C170.697 241.081 170.019 240.346 169.569 239.474C167.175 235.386 167.108 230.416 166.16 225.78C165.434 222.233 164.162 218.795 163.702 215.206C163.404 212.896 163.448 210.541 162.973 208.259C162.828 207.57 162.424 206.536 162.157 205.52C161.913 204.613 161.778 203.722 162.028 203.11C162.539 201.857 164.213 202.344 165.302 202.421C169.138 202.705 172.99 202.695 176.824 202.393C177.203 202.364 177.633 202.348 177.9 202.617C178.016 202.753 178.104 202.911 178.157 203.081C178.462 203.914 178.696 204.772 178.854 205.645C179.384 208.436 179.237 211.361 178.902 214.203Z" fill="#FABDBD"/>
<g opacity="0.1">
<path opacity="0.1" d="M177.425 202.393C177.227 202.372 177.028 202.372 176.83 202.393C174.993 202.54 173.152 202.614 171.314 202.623C173.351 202.628 175.388 202.551 177.425 202.393Z" fill="black"/>
<path opacity="0.1" d="M172.181 241.599C171.347 241.081 170.668 240.346 170.218 239.474C167.825 235.386 167.757 230.416 166.81 225.78C166.083 222.233 164.811 218.795 164.352 215.206C164.053 212.896 164.098 210.541 163.622 208.259C163.478 207.57 163.073 206.536 162.806 205.52C162.562 204.613 162.427 203.722 162.678 203.11C162.784 202.859 162.963 202.646 163.192 202.497C163.421 202.349 163.69 202.272 163.963 202.277C163.15 202.223 162.357 202.319 162.035 203.11C161.785 203.722 161.92 204.613 162.164 205.52C162.43 206.536 162.835 207.57 162.98 208.259C163.455 210.541 163.41 212.896 163.709 215.206C164.169 218.798 165.441 222.236 166.167 225.78C167.115 230.416 167.182 235.392 169.576 239.474C170.025 240.346 170.704 241.081 171.539 241.599C172.052 241.882 172.64 242 173.222 241.938C172.857 241.89 172.504 241.775 172.181 241.599V241.599Z" fill="black"/>
</g>
<path d="M191.05 233.854C189.123 237.699 189.444 243.146 189.444 243.146C189.765 255.963 184.625 282.878 184.625 282.878H180.127C180.127 282.878 179.484 253.079 180.127 250.516C180.769 247.952 179.805 238.981 178.841 226.485C178.125 217.193 180.075 208.772 181.123 205.078C181.482 203.796 181.733 203.094 181.733 203.094C181.733 203.094 189.123 192.2 193.299 197.327C194.263 198.519 194.774 200.925 194.951 203.963C195.523 213.985 192.528 230.903 191.05 233.854Z" fill="#FABDBD"/>
<path opacity="0.1" d="M194.951 203.963C194.775 200.925 194.27 198.516 193.3 197.327C192.368 196.186 191.276 195.84 190.145 195.991C191.021 196.136 191.807 196.615 192.336 197.327C193.3 198.519 193.811 200.925 193.987 203.963C194.559 213.985 191.565 230.903 190.087 233.854C188.159 237.699 188.48 243.146 188.48 243.146C188.802 255.963 183.661 282.878 183.661 282.878H184.625C184.625 282.878 189.766 255.963 189.444 243.146C189.444 243.146 189.123 237.699 191.051 233.854C192.529 230.903 195.523 213.985 194.951 203.963Z" fill="black"/>
<path d="M177.788 281.708C177.429 281.989 177.119 282.327 176.869 282.708C176.294 283.791 177.11 285.085 177.984 285.947C178.858 286.809 179.912 287.732 179.912 288.959C179.912 289.946 179.163 290.792 178.324 291.317C177.875 291.599 177.309 291.958 177.402 292.49C177.435 292.625 177.493 292.752 177.573 292.865C178.292 293.964 179.568 294.608 180.859 294.852C182.151 295.095 183.484 294.989 184.798 294.884C184.995 294.891 185.188 294.824 185.338 294.698C185.433 294.57 185.484 294.415 185.483 294.256C185.547 293.576 185.505 292.859 185.804 292.247C186.222 291.41 187.182 290.984 187.732 290.234C188.503 289.209 188.397 287.783 188.105 286.537C187.462 283.823 186.032 280.728 183.886 278.847C181.399 276.687 179.449 280.148 177.788 281.708Z" fill="#3F3D56"/>
<path d="M187.523 120.203C189.316 117.531 188.85 113.795 187.019 111.135C185.187 108.476 182.244 106.803 179.208 105.723C175.115 104.269 170.601 103.772 166.395 104.865C163.047 105.733 160.04 107.55 156.885 108.953C151.303 111.437 145.234 112.641 139.124 112.478C132.342 112.289 124.91 110.555 119.22 114.253C108.804 121.01 113.437 139.402 103.583 146.935C100.926 148.967 97.5815 149.854 94.6256 151.421C91.6698 152.988 88.8681 155.714 88.9388 159.053C88.9709 160.655 89.6778 162.184 90.5453 163.539C94.2401 169.38 101.148 172.994 108.065 172.927C114.982 172.86 121.733 169.191 125.72 163.545C126.719 162.132 127.599 160.559 129.048 159.617C131.94 157.727 135.751 159.05 139.201 159.332C146.883 159.957 154.568 154.205 156.098 146.66C156.74 143.439 156.628 139.591 159.227 137.569C161.325 135.938 164.278 136.288 166.938 136.009C171.802 135.506 175.642 132.484 178.283 128.537C179.494 126.726 179.635 124.564 181.287 123.138C183.067 121.571 185.82 122.728 187.523 120.203Z" fill="#3F3D56"/>
<g opacity="0.1">
<path opacity="0.1" d="M132.698 113.096C135.515 113.173 138.333 112.958 141.106 112.455C140.342 112.478 139.57 112.478 138.803 112.455C133.479 112.308 127.757 111.212 122.79 112.532C126.067 112.564 129.456 113.006 132.698 113.096Z" fill="black"/>
<path opacity="0.1" d="M122.616 160.255C121.167 161.197 120.287 162.77 119.288 164.183C116.216 168.482 111.728 171.568 106.606 172.902C106.982 172.918 107.358 172.927 107.737 172.924C114.661 172.857 121.405 169.188 125.392 163.542C126.391 162.129 127.272 160.556 128.721 159.614L128.971 159.46C126.703 159.149 124.477 159.04 122.616 160.255Z" fill="black"/>
<path opacity="0.1" d="M186.694 111.126C184.866 108.479 181.92 106.794 178.883 105.714C174.79 104.259 170.276 103.762 166.07 104.855C165.974 104.877 165.881 104.906 165.788 104.932C168.175 105.065 170.53 105.544 172.779 106.355C175.815 107.434 178.761 109.12 180.59 111.766C182.418 114.413 182.887 118.175 181.094 120.834C179.391 123.369 176.638 122.212 174.835 123.772C173.184 125.198 173.042 127.361 171.831 129.171C169.56 132.558 166.398 135.259 162.462 136.285C163.815 136.124 165.242 136.144 166.591 136.003C171.455 135.5 175.295 132.478 177.936 128.53C179.147 126.72 179.288 124.557 180.94 123.132C182.742 121.571 185.496 122.728 187.198 120.193C188.994 117.521 188.529 113.772 186.694 111.126Z" fill="black"/>
<path opacity="0.1" d="M160.489 136.643C157.845 136.919 154.893 136.573 152.779 138.204C150.179 140.226 150.305 144.074 149.649 147.294C148.521 152.924 143.94 157.567 138.5 159.294L138.883 159.329C146.565 159.954 154.25 154.202 155.779 146.656C156.422 143.436 156.31 139.588 158.909 137.566C159.506 137.121 160.183 136.795 160.904 136.605C160.759 136.608 160.628 136.631 160.489 136.643Z" fill="black"/>
</g>
<path d="M238.119 108.732C238.119 108.732 230.408 124.112 227.838 129.879C225.268 135.647 201.814 144.298 198.601 144.618C197.739 144.736 196.936 145.122 196.307 145.721C194.492 147.323 193.46 150.066 193.46 150.066C193.46 150.066 194.745 158.717 193.139 173.135C193.107 173.414 193.078 173.693 193.052 173.962C191.651 187.682 194.585 190.918 194.585 190.918C194.585 190.918 163.42 202.774 164.384 187.394C164.686 182.552 164.641 179.015 164.342 176.058C164.015 173.03 163.397 170.041 162.498 167.131C161.736 164.475 160.827 161.562 159.886 157.595C159.432 155.616 158.835 153.672 158.099 151.78C158.077 151.722 158.054 151.664 158.035 151.61C156.429 147.634 154.822 146.349 153.903 145.932C153.036 145.556 152.209 145.092 151.436 144.548C148.467 142.411 142.096 137.621 136.422 131.962C128.711 124.272 121 106.008 121 106.008C121 106.008 118.751 95.4347 123.892 86.7835C129.032 78.1323 126.783 103.765 126.783 103.765C126.783 103.765 136.101 116.262 138.35 122.029C139.506 124.996 141.344 126.515 142.848 127.303C145.332 128.593 147.71 130.076 149.961 131.738C151.482 132.884 153.081 133.925 154.745 134.852C158.337 136.775 162.639 138.944 166.225 139.514C166.784 139.606 167.35 139.655 167.918 139.658C168.187 139.667 168.454 139.614 168.7 139.503C168.945 139.391 169.161 139.225 169.331 139.018C170.295 137.887 170.273 135.451 170.051 133.449C169.933 132.411 169.757 131.381 169.524 130.363C169.524 130.363 179.966 123.795 179.645 131.805C179.595 132.69 179.677 133.578 179.889 134.439C180.06 135.229 180.438 135.96 180.985 136.557C181.532 137.154 182.228 137.595 183.002 137.835C184.256 138.202 185.583 138.245 186.858 137.96C187.255 137.893 187.639 137.762 187.995 137.573C188.959 136.932 198.598 134.048 201.489 133.728C204.381 133.407 218.839 126.358 218.839 126.358L234.582 104.57C234.582 104.57 234.261 91.7531 240.686 86.6265C247.112 81.4998 238.119 108.732 238.119 108.732Z" fill="#FABDBD"/>
<g opacity="0.1">
<path opacity="0.1" d="M193.052 172.039C192.772 174.614 192.648 177.204 192.683 179.794C192.715 178.102 192.827 176.17 193.052 173.962C193.078 173.693 193.107 173.414 193.139 173.135C193.701 168.201 193.969 163.237 193.942 158.271C193.893 162.596 193.625 166.915 193.139 171.213C193.12 171.492 193.078 171.77 193.052 172.039Z" fill="black"/>
<path opacity="0.1" d="M169.858 130.158C169.643 130.283 169.537 130.36 169.537 130.36C169.849 131.73 170.056 133.123 170.154 134.525C170.219 133.063 170.12 131.598 169.858 130.158V130.158Z" fill="black"/>
<path opacity="0.1" d="M126.934 102.026C127.092 99.7826 127.326 95.7614 127.281 92.1855C127.227 96.9661 126.799 101.843 126.799 101.843L126.934 102.026Z" fill="black"/>
<path opacity="0.1" d="M164.406 187.019C164.406 187.144 164.406 187.269 164.384 187.394C163.42 202.774 194.585 190.918 194.585 190.918C194.22 190.427 193.945 189.876 193.772 189.291C189.078 190.957 165.489 198.704 164.406 187.019Z" fill="black"/>
<path opacity="0.1" d="M238.12 106.809C238.12 106.809 230.409 122.189 227.838 127.957C225.268 133.724 201.814 142.375 198.601 142.696C197.739 142.814 196.937 143.199 196.307 143.798C194.492 145.4 193.46 148.143 193.46 148.143C193.46 148.143 193.538 148.665 193.631 149.659C193.991 148.835 194.916 146.945 196.307 145.721C196.937 145.122 197.739 144.736 198.601 144.618C201.814 144.298 225.268 135.647 227.838 129.879C230.409 124.112 238.12 108.732 238.12 108.732C238.12 108.732 243.553 92.2785 242.955 87.3569C242.46 93.6627 238.12 106.809 238.12 106.809Z" fill="black"/>
<path opacity="0.1" d="M164.342 174.135C164.015 171.107 163.398 168.118 162.498 165.208C161.736 162.552 160.827 159.639 159.886 155.673C159.433 153.693 158.836 151.75 158.099 149.857C158.077 149.799 158.055 149.742 158.035 149.687C156.429 145.711 154.822 144.426 153.903 144.009C153.036 143.633 152.209 143.169 151.436 142.625C148.467 140.488 142.096 135.698 136.422 130.039C128.711 122.349 121 104.086 121 104.086C120.715 102.544 120.556 100.982 120.525 99.4141C120.446 101.623 120.606 103.833 121 106.008C121 106.008 128.711 124.272 136.422 131.962C142.096 137.62 148.467 142.411 151.436 144.548C152.215 145.093 153.048 145.557 153.923 145.932C154.838 146.349 156.442 147.633 158.054 151.61C158.074 151.664 158.096 151.722 158.119 151.78C158.852 153.673 159.445 155.616 159.895 157.595C160.837 161.562 161.746 164.474 162.508 167.131C163.407 170.041 164.025 173.03 164.352 176.057C164.487 177.397 164.567 178.855 164.59 180.495C164.628 178.372 164.546 176.249 164.342 174.135Z" fill="black"/>
</g>
<path d="M196.162 160.216C195.672 161.025 195.242 161.869 194.877 162.741C194.392 164.087 194.388 165.551 194.299 166.977C194.17 168.978 193.865 170.964 193.386 172.911C193.309 173.27 193.201 173.621 193.065 173.962C192.969 174.191 192.842 174.407 192.689 174.603C192.518 174.812 192.316 174.994 192.091 175.144C191.747 175.374 191.382 175.572 191.002 175.737C186.53 177.82 181.653 179.659 176.772 178.941C174.709 178.582 172.713 177.912 170.851 176.955C169.084 176.099 167.085 175.083 165.254 175.795C164.973 175.937 164.67 176.031 164.358 176.074C164.297 176.075 164.237 176.069 164.178 176.058C163.574 175.942 163.574 173.911 163.436 173.312C162.909 171.011 162.828 169.146 162.513 167.147C162.346 166.041 162.087 164.951 161.739 163.888C160.454 160.011 160.065 155.878 160.065 151.815C160.065 151.613 158.619 151.815 158.138 151.796C158.015 151.796 157.948 151.776 157.977 151.735C158.005 151.695 158.037 151.658 158.073 151.626C158.242 151.49 158.438 151.392 158.648 151.341L159.027 151.229C161.013 150.668 163.204 150.434 164.689 149.04C166.231 147.601 166.616 145.304 166.549 143.202C166.53 142.526 166.199 140.886 166.253 139.524C166.813 139.616 167.379 139.664 167.946 139.668C168.216 139.677 168.483 139.623 168.728 139.512C168.973 139.401 169.19 139.235 169.36 139.027C169.896 140.062 170.36 141.133 170.748 142.231C171.294 143.571 171.712 144.98 172.512 146.192C173.797 148.165 176.168 149.463 178.526 149.264C180.885 149.066 183.079 147.259 183.5 144.939C183.87 142.904 183.012 139.976 183.031 137.861C184.285 138.228 185.611 138.271 186.886 137.986C186.941 138.116 186.987 138.25 187.025 138.386C187.747 140.86 188.711 143.699 191.137 144.577C192.705 145.141 194.559 144.718 196.008 145.538C196.119 145.602 196.226 145.672 196.329 145.749C196.664 145.998 196.952 146.302 197.18 146.65C197.776 147.63 198.129 148.737 198.212 149.88C198.583 153.452 197.869 157.053 196.162 160.216V160.216Z" fill="#006064"/>
<path opacity="0.1" d="M179.889 134.436C178.286 135.052 176.561 135.283 174.852 135.111C173.143 134.939 171.498 134.369 170.051 133.446C169.933 132.408 169.757 131.378 169.524 130.36C169.524 130.36 179.966 123.791 179.645 131.802C179.595 132.687 179.677 133.575 179.889 134.436V134.436Z" fill="black"/>
<path d="M175.947 134.525C181.98 134.525 186.871 129.648 186.871 123.631C186.871 117.615 181.98 112.737 175.947 112.737C169.914 112.737 165.023 117.615 165.023 123.631C165.023 129.648 169.914 134.525 175.947 134.525Z" fill="#FABDBD"/>
<path d="M156.833 150.706C156.833 150.706 178.039 137.249 243.903 151.668C309.767 166.086 348 154.551 348 154.551V169.611C348 169.611 274.104 177.621 245.83 169.611C217.557 161.6 177.309 156.98 163.214 169.383L156.833 150.706Z" fill="#FDD835"/>
<path opacity="0.1" d="M156.833 150.706C156.833 150.706 178.039 137.249 243.903 151.668C309.767 166.086 348 154.551 348 154.551V169.611C348 169.611 274.104 177.621 245.83 169.611C217.557 161.6 177.309 156.98 163.214 169.383L156.833 150.706Z" fill="#FDD835"/>
<path d="M157.476 151.347C157.476 151.347 178.039 137.89 243.903 152.308C309.767 166.727 347.358 155.192 347.358 155.192L347.679 168.97C347.679 168.97 274.425 176.98 246.152 168.97C217.878 160.96 177.952 155.378 163.857 167.781L157.476 151.347Z" fill="#FDD835"/>
<path d="M149.746 172.046C149.746 172.046 128.541 185.503 62.6766 171.085C-3.1875 156.666 0.0253858 168.201 0.0253858 168.201V153.141C0.0253858 153.141 32.4755 145.131 60.7489 153.141C89.0223 161.152 129.27 165.772 143.365 153.369L149.746 172.046Z" fill="#FDD835"/>
<path opacity="0.1" d="M149.746 172.046C149.746 172.046 128.541 185.503 62.6766 171.085C-3.1875 156.666 0.0253858 168.201 0.0253858 168.201V153.141C0.0253858 153.141 32.4755 145.131 60.7489 153.141C89.0223 161.152 129.27 165.772 143.365 153.369L149.746 172.046Z" fill="#FDD835"/>
<path d="M149.103 171.405C149.103 171.405 128.54 184.863 62.6762 170.444C-3.18798 156.025 0.66748 167.56 0.66748 167.56L0.346191 153.782C0.346191 153.782 32.1538 145.772 60.4271 153.782C88.7005 161.793 128.627 167.374 142.722 154.971L149.103 171.405Z" fill="#FDD835"/>
<path d="M166.552 125.435C166.231 123.436 165.736 120.917 167.414 119.773C168.012 119.412 168.703 119.234 169.402 119.261C172.875 119.226 176.194 121.638 179.6 120.933C180.684 120.707 181.679 120.173 182.466 119.396C183.253 118.619 183.798 117.631 184.035 116.553C184.273 115.474 184.193 114.35 183.805 113.316C183.417 112.281 182.738 111.38 181.849 110.722C180.509 109.728 178.816 109.37 177.177 109.033C172.869 108.149 168.371 107.268 164.117 108.392C159.863 109.517 155.976 113.32 156.316 117.684C156.477 119.773 157.544 121.67 158.658 123.452C159.507 124.804 162.809 131.142 164.413 131.238C166.675 131.369 166.774 126.743 166.552 125.435Z" fill="#3F3D56"/>
<path d="M193.621 185.471C193.621 185.471 171.452 190.918 164.062 185.471C164.062 185.471 160.849 197.968 161.813 204.376C161.813 204.376 177.556 205.337 179.163 206.298C179.163 206.298 179.484 203.735 181.09 205.017C181.09 205.017 186.552 198.608 196.512 204.376C196.512 204.376 198.44 189.316 193.621 185.471Z" fill="#006064"/>
<path opacity="0.1" d="M181.855 110.722C181.627 110.557 181.387 110.407 181.139 110.273C181.802 111.025 182.255 111.937 182.454 112.918C182.653 113.899 182.59 114.916 182.272 115.865C181.953 116.814 181.39 117.664 180.64 118.328C179.889 118.993 178.976 119.449 177.993 119.652C174.588 120.357 171.269 117.944 167.796 117.979C167.097 117.952 166.405 118.13 165.807 118.492C164.13 119.636 164.621 122.154 164.943 124.154C165.155 125.461 165.068 130.088 162.812 129.963H162.774C163.394 130.716 163.972 131.225 164.419 131.244C166.668 131.369 166.761 126.759 166.549 125.435C166.228 123.436 165.736 120.917 167.413 119.774C168.011 119.412 168.703 119.234 169.402 119.261C172.875 119.226 176.194 121.638 179.6 120.933C180.684 120.707 181.679 120.173 182.466 119.396C183.252 118.619 183.797 117.631 184.035 116.553C184.273 115.474 184.193 114.35 183.805 113.316C183.417 112.281 182.738 111.38 181.849 110.722H181.855Z" fill="black"/>
</svg>
