<svg width="365" height="365" viewBox="0 0 365 365" fill="none" xmlns="http://www.w3.org/2000/svg">
<rect width="365" height="365" rx="182.5" fill="#D8E5D4"/>
<path d="M332 209.921C332 253.044 268.647 288 190.5 288C148.517 288 110.805 277.913 84.8938 261.888C67.9867 251.435 56.1007 238.452 51.3326 224.105C49.7937 219.535 49.0059 214.744 49 209.921C49 166.802 166.261 -27.7031 190.5 131.846C214.739 291.395 332 166.802 332 209.921Z" fill="#FDD835" fill-opacity="0.5"/>
<path opacity="0.1" d="M260 238C260 254.015 210.013 267 148.347 267C124.597 267 102.578 265.074 84.483 261.789C67.6153 251.275 55.757 238.216 51 223.786C70.1435 214.96 106.565 209 148.347 209C210.013 209 260 221.985 260 238Z" fill="black"/>
<path d="M179.927 74.825C171.124 59.759 153.708 59.0568 153.708 59.0568C153.708 59.0568 136.737 56.8586 125.851 79.8043C115.704 101.192 101.699 121.841 123.596 126.848L127.551 114.379L130.001 127.776C133.119 128.004 136.246 128.058 139.37 127.939C162.82 127.172 185.152 128.163 184.433 119.64C183.477 108.309 188.397 89.3215 179.927 74.825Z" fill="#2F2E41"/>
<path d="M122.563 205.89C122.236 207.529 121.994 209.196 121.439 210.771C120.887 212.335 120.035 213.781 119.531 215.361C117.923 220.397 120.152 226.013 123.712 229.9C126.798 233.258 130.783 235.644 135.184 236.769C138.395 237.583 141.734 237.701 145.043 237.814C154.207 238.127 163.606 238.407 172.289 235.438C175.032 234.477 177.682 233.263 180.205 231.812C181.001 231.43 181.703 230.873 182.259 230.182C182.921 229.231 183.006 227.998 183 226.837C182.98 222.92 182.193 219.023 182.38 215.111C182.483 212.944 182.886 210.778 182.688 208.618C182.238 203.719 178.38 199.334 173.609 198.301C171.146 197.767 168.591 198.058 166.083 198.301C159.574 198.932 153.037 199.226 146.497 199.184C139.816 199.141 133.176 198.113 126.527 198.005C124.561 197.973 124.601 198.585 123.975 200.503C123.399 202.269 122.927 204.068 122.563 205.89Z" fill="#2F2E41"/>
<path d="M141.153 109.898C140.825 111.557 140.471 113.276 139.439 114.638C138.253 116.206 136.317 117.102 135.041 118.603C133.119 120.862 133.008 124.04 133 126.964C132.993 129.658 133.05 132.531 134.605 134.766C135.614 136.217 137.149 137.235 138.65 138.212C144.48 142.008 150.781 145.872 157.811 145.997C160.724 146.049 163.847 145.323 165.764 143.203C166.592 142.207 167.242 141.086 167.69 139.884C169.487 135.603 170.577 131.076 170.919 126.468C171.079 124.3 171.063 122.069 170.304 120.024C169.45 117.723 167.723 115.83 166.582 113.649C165.233 111.056 164.739 108.125 165.168 105.252C165.225 105.05 165.207 104.835 165.118 104.644C165.024 104.541 164.907 104.462 164.776 104.41C164.645 104.359 164.503 104.337 164.362 104.348L150.423 103.378C149.124 103.316 147.832 103.173 146.552 102.951C145.801 102.803 143.816 101.772 143.1 102.046C141.773 102.554 141.425 108.523 141.153 109.898Z" fill="#A0616A"/>
<path opacity="0.1" d="M141.153 110.078C140.825 111.774 140.471 113.532 139.439 114.926C138.253 116.529 136.317 117.446 135.041 118.98C133.119 121.29 133.008 124.541 133 127.531C132.993 130.286 133.05 133.224 134.605 135.511C135.614 136.995 137.149 138.036 138.65 139.035C144.48 142.917 150.781 146.869 157.811 146.997C160.724 147.05 163.847 146.307 165.764 144.139C166.592 143.121 167.242 141.974 167.69 140.745C169.487 136.367 170.577 131.737 170.919 127.024C171.079 124.807 171.063 122.526 170.304 120.433C169.45 118.081 167.723 116.145 166.582 113.914C165.233 111.262 164.739 108.264 165.168 105.326C165.225 105.119 165.207 104.899 165.118 104.704C165.024 104.599 164.907 104.517 164.776 104.465C164.645 104.412 164.503 104.391 164.362 104.401L150.423 103.41C149.124 103.346 147.832 103.2 146.552 102.972C145.801 102.821 143.816 101.767 143.1 102.047C141.773 102.566 141.425 108.671 141.153 110.078Z" fill="black"/>
<path d="M154.5 111C165.822 111 175 102.046 175 91C175 79.9543 165.822 71 154.5 71C143.178 71 134 79.9543 134 91C134 102.046 143.178 111 154.5 111Z" fill="#A0616A"/>
<path d="M144.226 136.268C145.268 137.351 146.373 138.423 147.739 139.057C149.097 139.689 150.628 139.846 152.127 139.888C155.732 139.989 159.64 139.332 162.147 136.756C165.38 133.436 165.273 128.081 167.807 124.208C168.011 123.856 168.29 123.554 168.624 123.32C169.049 123.09 169.529 122.98 170.012 123.003C173.212 122.973 176 125.036 178.516 127.002C179.643 127.882 180.798 128.794 181.509 130.032C182.006 130.996 182.347 132.033 182.518 133.104C183.767 139.16 184.171 145.353 184.572 151.523C184.794 154.931 185.016 158.342 184.999 161.757C184.945 173.008 182.314 184.07 179.697 195.016C179.36 196.427 178.899 198.003 177.608 198.679C177.033 198.936 176.415 199.086 175.785 199.121C168.291 199.996 160.781 200.871 153.236 200.987C150.291 201.032 147.348 200.961 144.406 200.774C143.9 200.768 143.398 200.681 142.919 200.517C142.269 200.207 141.711 199.735 141.298 199.148C137.216 194.037 136.976 186.971 137.002 180.446C137.065 164.493 137.639 148.553 138.722 132.626C138.812 131.311 138.831 129.714 137.878 128.68C139.594 131.411 141.981 133.936 144.226 136.268Z" fill="#D0CDE1"/>
<path d="M139.999 112.8C139.321 114.031 134.32 117.089 133.354 118.109C127.96 123.811 118.114 123.597 113.181 129.704C111.445 131.853 110.543 134.552 109.88 137.236C108.942 141.032 108.441 145.172 110.012 148.752C111.524 152.196 114.707 154.577 116.869 157.653C119.241 161.031 120.308 165.133 121.331 169.135C122.086 172.091 122.847 175.119 122.553 178.156C122.219 181.608 120.553 184.77 119.569 188.095C118.585 191.421 118.415 195.381 120.69 197.995C122.361 199.915 124.982 200.676 127.487 201.104C130.685 201.651 133.934 201.806 137.175 201.95C140.039 202.077 143.195 202.101 145.397 200.26C147.134 198.808 147.889 196.451 147.987 194.185C148.085 191.919 147.614 189.673 147.32 187.424C147.015 185.093 146.897 182.741 146.799 180.392C146.359 169.851 146.299 159.304 146.619 148.75C146.686 146.554 146.766 144.331 146.299 142.184C145.685 139.361 144.164 136.838 142.894 134.244C140.374 129.095 139.182 124.093 139.572 118.37C139.956 112.722 142.413 108.418 139.999 112.8Z" fill="#006064"/>
<path d="M167.969 113.207C169.007 114.276 172.532 114.628 173.851 115.316C175.063 115.948 176.405 116.279 177.718 116.658C182.531 118.049 187.11 120.155 191.301 122.905C192.172 123.416 192.942 124.082 193.573 124.872C194.311 125.901 194.579 127.185 194.829 128.428C195.475 131.635 196.125 134.881 195.979 138.15C195.825 141.62 194.782 144.981 193.748 148.296L189.881 160.683C186.996 169.929 184.091 179.266 183.279 188.919C182.83 194.269 183.03 199.654 183.874 204.956C183.959 205.489 184.03 206.1 183.679 206.51C183.425 206.762 183.089 206.916 182.732 206.946C180.866 207.238 179.061 206.285 177.37 205.441C172.203 202.864 166.688 201.056 161 200.073C163.223 196.854 164.938 193.312 166.084 189.57C166.736 187.194 167.249 184.781 167.621 182.346L169.419 171.921C170.079 168.099 170.739 164.266 170.962 160.394C171.098 158.942 171.014 157.478 170.712 156.051C170.367 154.675 169.682 153.414 169.069 152.135C166.105 145.956 164.714 138.905 165.88 132.15C166.391 129.194 167.383 126.233 166.969 123.262C166.571 120.405 166.985 118.185 166.253 115.357C163.25 103.748 166.018 111.197 167.969 113.207Z" fill="#006064"/>
<path d="M112.81 140.109C111.448 142.872 109.169 145.226 108.394 148.198C108.092 149.587 107.963 151.006 108.009 152.426C107.991 154.565 107.979 156.747 108.651 158.783C109.084 160.094 109.788 161.302 110.295 162.587C111.002 164.382 111.317 166.302 111.22 168.223C111.083 170.885 110.158 173.468 110.085 176.132C109.971 180.322 111.954 184.26 113.889 188C114.376 186.822 115.121 185.761 116.071 184.893C117.022 184.025 118.154 183.371 119.39 182.975C120.627 182.58 121.936 182.453 123.228 182.604C124.519 182.755 125.761 183.179 126.867 183.848C127.378 183.388 127.432 182.631 127.452 181.953C127.595 177.092 127.733 172.232 127.866 167.371C128.076 159.854 128.275 152.237 126.505 144.918C125.706 141.614 124.463 138.323 122.184 135.76C120.984 134.41 116.91 130.856 114.94 132.367C114.054 133.047 114.261 134.898 114.121 135.835C113.909 137.316 113.467 138.757 112.81 140.109Z" fill="#006064"/>
<path d="M196.309 131.245C196.943 133.254 196.981 135.401 196.994 137.512C197.02 141.817 196.964 146.121 196.826 150.425C196.755 152.629 196.658 154.862 196.001 156.963C195.568 158.349 194.899 159.648 194.452 161.029C193.111 165.167 193.843 169.655 193.958 174.011C194.04 175.421 193.921 176.835 193.607 178.21C192.9 180.911 190.998 183.092 189.671 185.539C188.41 187.863 187.65 190.467 186.144 192.635C184.639 194.803 182.033 196.52 179.507 195.855C177.593 195.351 176.233 193.628 175.292 191.859C173.239 187.97 172.537 183.491 173.3 179.146C174.244 173.859 177.297 169.17 178.398 163.915C179.91 156.698 177.612 149.252 177.681 141.874C177.649 140.717 177.804 139.563 178.137 138.457C178.715 136.772 179.955 135.426 181.101 134.075C182.533 132.385 183.863 130.61 185.085 128.758C185.905 127.513 187.019 124.313 188.474 124.047C191.721 123.452 195.503 128.693 196.309 131.245Z" fill="#006064"/>
<path d="M95.5349 202.599C93.7316 202.145 91.8736 201.948 90.0154 202.012C88.063 202.12 86.1559 202.643 84.421 203.546C82.6861 204.449 81.1631 205.712 79.9533 207.25C78.7434 208.788 77.8745 210.566 77.4043 212.467C76.934 214.367 76.8732 216.346 77.226 218.271C77.6099 220.367 78.4723 222.344 79.4131 224.255C80.8768 227.23 82.6324 230.197 85.3422 232.103C86.9274 233.218 88.7621 233.913 90.5749 234.597L104.847 239.98C106.947 240.772 109.046 241.564 111.167 242.298C121.819 245.985 132.925 248.196 144.176 248.869C147.603 249.073 151.082 249.13 154.425 248.349C155.219 248.163 156.065 247.887 156.524 247.213C156.796 246.739 156.957 246.208 156.993 245.662L157.872 239.507C157.995 238.64 158.114 237.728 157.797 236.912C157.395 235.877 156.386 235.226 155.425 234.673C146.042 229.278 135.086 226.301 127.188 218.895C125.329 217.152 123.773 214.388 121.514 213.204C118.953 211.861 115.936 211.095 113.288 209.857C107.5 207.152 101.808 204.043 95.5349 202.599Z" fill="#2F2E41"/>
<path opacity="0.1" d="M110.323 210.431C115.315 212.032 136.388 223.125 140 226.997C139.516 227.176 123.089 217.752 122.596 217.6C118.115 216.224 113.61 214.838 109.355 212.824C108.499 212.418 103.794 210.513 104.007 209.408C104.247 208.16 109.437 210.147 110.323 210.431Z" fill="black"/>
<path d="M172.976 251.99C173.253 252.011 173.527 251.928 173.748 251.756C173.845 251.627 173.917 251.48 173.958 251.323C174 251.166 174.01 251.002 173.99 250.84C173.982 248.061 173.975 245.281 173.967 242.502C171.641 241.36 169.039 240.994 166.485 240.642L154.57 239C154.843 239.038 152.707 244.29 153.034 244.991C153.612 246.227 158.025 247.323 159.27 247.906C163.6 249.935 168.1 252.165 172.976 251.99Z" fill="#A0616A"/>
<path d="M134.506 242.167C132.206 242.547 129.64 242.884 128.15 244.743C126.262 247.1 127.066 250.615 127.967 253.536C128.101 254.126 128.369 254.675 128.75 255.135C129.365 255.765 130.307 255.858 131.169 255.914C133.266 256.052 135.498 256.16 137.331 255.092C138.198 254.586 138.916 253.847 139.724 253.244C141.075 252.311 142.561 251.605 144.125 251.155C147 250.216 149.96 249.582 152.959 249.264C154.134 249.14 155.333 249.06 156.438 248.627C157.544 248.195 158.568 247.337 158.889 246.156C159.314 244.596 158.44 243.005 157.603 241.636C156.56 239.932 155.454 238.137 153.899 236.882C151.629 235.051 150.506 236.456 148.22 237.628C143.894 239.846 139.271 241.376 134.506 242.167Z" fill="#A0616A"/>
<path d="M127.909 244.483L113.257 240.075C111.475 239.539 109.663 238.999 107.805 239C105.947 239.001 104.003 239.621 102.798 241.061C101.661 242.418 101.336 244.273 101.053 246.032L100.447 249.796C100.139 251.709 99.8308 253.658 100.108 255.576C100.385 257.494 101.347 259.409 103.019 260.338C105.046 261.463 107.531 260.914 109.794 260.443C114.364 259.492 119.013 258.984 123.678 258.927C125.432 258.906 127.271 258.928 128.821 258.092C130.663 257.099 131.765 254.998 131.955 252.885C132.243 249.67 131.19 245.47 127.909 244.483Z" fill="#2F2E41"/>
<path d="M179.267 240.873C181.184 240.548 182.875 239.492 184.712 238.869C187.297 237.992 190.099 237.992 192.838 238.002C193.843 238.005 194.914 238.027 195.751 238.567C196.958 239.345 197.267 240.903 197.472 242.293C197.885 245.089 198.297 247.885 198.71 250.681C198.943 252.259 199.174 253.879 198.811 255.433C198.448 256.987 197.354 258.486 195.762 258.887C193.829 259.374 191.934 258.177 190.108 257.391C185.545 255.426 180.241 255.928 175.484 254.46C174.601 254.187 173.655 253.771 173.295 252.943C173.132 252.478 173.074 251.983 173.125 251.494C173.206 248.798 172.619 245.116 173.457 242.539C174.21 240.222 177.127 240.873 179.267 240.873Z" fill="#2F2E41"/>
<path d="M210.438 198.774C213.383 198.03 216.437 197.82 219.455 198.154C221.865 198.421 224.349 199.096 226.109 200.775C228.251 202.819 228.939 205.98 228.997 208.95C229.091 214.865 227.141 220.63 223.481 225.26C222.587 226.431 221.524 227.461 220.328 228.315C219.037 229.128 217.661 229.795 216.225 230.305L184.377 242.947C175.999 246.273 167.591 249.608 158.852 251.801C158.613 251.917 158.353 251.984 158.088 251.997C157.823 252.011 157.558 251.971 157.309 251.88C157.059 251.789 156.83 251.649 156.636 251.467C156.441 251.286 156.284 251.067 156.175 250.824C153.384 246.813 151.043 242.503 149.195 237.974C149.107 237.866 149.047 237.739 149.018 237.603C148.99 237.467 148.995 237.326 149.032 237.192C149.069 237.058 149.138 236.935 149.233 236.833C149.327 236.732 149.444 236.655 149.575 236.609L172.101 223.583C173.715 222.65 175.346 221.703 176.686 220.404C177.659 219.454 178.457 218.337 179.04 217.105C179.507 216.124 179.55 213.808 180.147 213.082C180.731 212.372 182.728 212.315 183.651 212.036C184.952 211.635 186.226 211.15 187.466 210.584C192.505 208.316 196.992 205.019 201.822 202.363C204.532 200.804 207.427 199.598 210.438 198.774Z" fill="#2F2E41"/>
<path opacity="0.1" d="M197.951 208.47C193.996 211.381 188.875 214.057 184.955 217.045C183.617 218.065 161.315 230.351 161 231.983C164.657 232.587 187.953 216.617 191.286 215.023C194.619 213.43 197.573 211.182 200.501 208.952C201.247 208.383 204.409 206.674 202.267 206.039C201.061 205.681 198.842 207.888 197.951 208.47Z" fill="black"/>
<path d="M170.767 114H136.604C135.216 114 133.885 114.553 132.904 115.537C131.923 116.521 131.371 117.855 131.371 119.247V121.168H131V125.464H131.371V128.472H131V131.05H131.371V162.753C131.371 164.145 131.923 165.479 132.904 166.463C133.885 167.447 135.216 168 136.604 168H170.767C172.155 168 173.486 167.447 174.467 166.463C175.449 165.479 176 164.145 176 162.753V119.247C176 117.855 175.449 116.521 174.467 115.537C173.486 114.553 172.155 114 170.767 114Z" fill="#3F3D56"/>
<path d="M176.175 73.2258L158.86 64L134.947 67.7744L130 90L142.316 89.5181L145.756 81.3526V89.3836L151.439 89.1613L154.737 76.1614L156.798 90L177 89.5806L176.175 73.2258Z" fill="#2F2E41"/>
<path d="M117.323 196.243C118.151 197.509 119.121 198.747 120.45 199.43C122.111 200.284 124.161 200.132 125.825 199.283C127.474 198.377 128.823 196.99 129.703 195.297C131.524 192.003 131.901 188.06 131.673 184.281C131.446 180.503 130.659 176.781 130.311 173.012C130.057 170.272 130.037 167.516 130.016 164.764C130.012 164.185 130.021 163.562 130.354 163.096C130.758 162.531 131.496 162.376 132.15 162.177C135.824 161.058 138.263 157.528 140.011 154.033C141.178 151.699 142.194 149.147 141.968 146.535C141.743 143.922 139.911 141.29 137.365 141.023C135.266 140.804 133.328 142.17 131.814 143.676C127.995 147.499 125.54 152.526 124.844 157.951C124.512 160.608 124.607 163.337 123.902 165.916C122.397 171.422 117.687 174.798 115.34 179.753C112.754 185.213 114.181 191.412 117.323 196.243Z" fill="#A0616A"/>
<path d="M189.238 174.791C188.67 176.073 187.844 177.231 186.808 178.197C185.772 179.163 184.547 179.918 183.205 180.417C181.537 181.067 179.697 181.177 177.96 180.729C177.099 180.497 176.304 180.076 175.638 179.497C174.971 178.919 174.452 178.199 174.118 177.394C173.853 176.583 173.707 175.74 173.686 174.889C173.436 171.163 173.532 167.324 174.927 163.845C175.465 162.503 176.19 161.23 176.614 159.85C177.098 158.276 177.176 156.616 177.25 154.975L177.708 144.81C177.784 144.072 177.731 143.327 177.552 142.606C177.095 141.135 175.679 140.179 174.379 139.302C171.24 137.183 168.139 134.712 166.618 131.308C166.152 130.266 165.845 129.108 166.082 127.996C166.51 125.978 168.609 124.671 170.684 124.231C172.041 123.943 173.445 123.924 174.81 124.177C176.175 124.429 177.473 124.947 178.626 125.699C179.779 126.451 180.764 127.422 181.52 128.554C182.276 129.685 182.788 130.953 183.026 132.282C183.231 133.429 183.228 134.601 183.349 135.759C183.603 138.217 184.407 140.585 184.91 143.007C186.149 148.97 185.507 155.135 186.732 161.098C187.756 166.083 191.618 169.336 189.238 174.791Z" fill="#A0616A"/>
<path d="M154 137C156.209 137 158 135.209 158 133C158 130.791 156.209 129 154 129C151.791 129 150 130.791 150 133C150 135.209 151.791 137 154 137Z" fill="#D0CDE1"/>
</svg>
